<svg width="430" height="394" viewBox="0 0 430 394" fill="none" xmlns="http://www.w3.org/2000/svg">
<g filter="url(#filter0_d_247_10757)">
<rect x="31.6914" y="63.0452" width="210" height="296" rx="20" transform="rotate(-10 31.6914 63.0452)" fill="#F2F2F2"/>
<rect x="32.2706" y="63.4508" width="209" height="295" rx="19.5" transform="rotate(-10 32.2706 63.4508)" stroke="#D2D2D2"/>
</g>
<path d="M97.6836 123.318L114.957 132.648L108.799 140.239L91.7562 130.868L97.6836 123.318ZM109.522 99.5733L109.99 102.228C110.74 106.485 110.837 110.408 110.28 113.997C109.748 117.581 108.629 120.753 106.92 123.514C105.208 126.248 103.013 128.5 100.337 130.267C97.6605 132.035 94.5527 133.231 91.0136 133.855C87.5001 134.474 84.1707 134.414 81.0255 133.672C77.8803 132.931 75.0353 131.569 72.4907 129.585C69.9415 127.575 67.7786 124.981 66.0019 121.804C64.251 118.622 63.0001 114.903 62.2495 110.646L61.7814 107.991C61.0262 103.708 60.9295 99.7853 61.4912 96.2221C62.074 92.6289 63.2066 89.4543 64.889 86.6984C66.5714 83.9425 68.7637 81.6784 71.4657 79.9063C74.1678 78.1341 77.2756 76.9382 80.7891 76.3187C84.3282 75.6947 87.6576 75.7555 90.7772 76.5011C93.9224 77.2423 96.7696 78.6177 99.3188 80.6275C101.868 82.6372 104.018 85.233 105.769 88.4148C107.516 91.5709 108.766 95.2904 109.522 99.5733ZM98.3334 104.283L97.8518 101.552C97.3273 98.5767 96.5839 96.0106 95.6218 93.8532C94.6852 91.6913 93.5556 89.9337 92.2328 88.5803C90.9356 87.2224 89.4626 86.2922 87.8139 85.7896C86.1606 85.2614 84.3594 85.1691 82.4103 85.5128C80.4612 85.8565 78.8001 86.5593 77.4272 87.6211C76.0498 88.6573 74.9838 90.0352 74.2293 91.7548C73.4747 93.4745 73.0272 95.5102 72.8865 97.862C72.7459 100.214 72.9379 102.877 73.4625 105.852L73.9441 108.583C74.4641 111.533 75.1946 114.101 76.1357 116.289C77.0722 118.451 78.1913 120.223 79.493 121.607C80.8158 122.96 82.3038 123.901 83.9571 124.429C85.6361 124.953 87.4501 125.043 89.3992 124.699C91.3483 124.356 92.9965 123.655 94.3438 122.598C95.7167 121.536 96.7804 120.145 97.535 118.426C98.3106 116.676 98.7687 114.625 98.9093 112.273C99.0454 109.896 98.8535 107.232 98.3334 104.283Z" fill="#F24822"/>
<path fill-rule="evenodd" clip-rule="evenodd" d="M127.651 179.148C117.152 181.166 117.173 193.52 117.173 193.52C117.173 193.52 112.63 181.963 102.074 183.658C91.5181 185.352 86.6673 195.726 91.9441 204.816C97.2206 213.905 101.156 215.466 107.993 221.524C114.829 227.583 125.117 238.336 125.583 241.218C125.036 238.35 130.689 224.787 135.041 216.755C139.393 208.723 142.557 205.911 144.407 195.565C146.256 185.219 138.15 177.13 127.651 179.148Z" fill="#F24822"/>
<g filter="url(#filter1_d_247_10757)">
<rect x="186" y="59" width="210" height="296" rx="20" fill="#F2F2F2"/>
<rect x="186.5" y="59.5" width="209" height="295" rx="19.5" stroke="#D2D2D2"/>
</g>
<path d="M251.969 129.465V138.254H213.062V130.754L231.461 111.027C233.31 108.97 234.768 107.16 235.836 105.598C236.904 104.009 237.672 102.59 238.141 101.34C238.635 100.064 238.883 98.8528 238.883 97.707C238.883 95.9882 238.596 94.5169 238.023 93.2929C237.451 92.0429 236.604 91.0794 235.484 90.4023C234.391 89.7252 233.036 89.3867 231.422 89.3867C229.703 89.3867 228.219 89.8033 226.969 90.6367C225.745 91.47 224.807 92.6288 224.156 94.1132C223.531 95.5976 223.219 97.2773 223.219 99.1523H211.93C211.93 95.7669 212.737 92.6679 214.352 89.8554C215.966 87.0169 218.245 84.7643 221.187 83.0976C224.13 81.4049 227.62 80.5585 231.656 80.5585C235.641 80.5585 239 81.2096 241.734 82.5117C244.495 83.7877 246.578 85.6367 247.984 88.0585C249.417 90.4544 250.133 93.3189 250.133 96.6523C250.133 98.5273 249.833 100.363 249.234 102.16C248.635 103.931 247.776 105.702 246.656 107.473C245.562 109.217 244.234 110.988 242.672 112.785C241.109 114.582 239.378 116.444 237.477 118.371L227.594 129.465H251.969Z" fill="#050505"/>
<path fill-rule="evenodd" clip-rule="evenodd" d="M262.755 206.288C261.056 206.288 259.437 206.659 257.961 207.329C259.347 205.139 260.161 202.487 260.161 199.627C260.161 192.122 254.571 186.038 247.676 186.038C240.781 186.038 235.191 192.122 235.191 199.627C235.191 202.35 235.93 204.884 237.197 207.01C235.937 206.545 234.588 206.288 233.184 206.288C226.289 206.288 220.699 212.373 220.699 219.878C220.699 227.383 226.289 233.467 233.184 233.467C234.741 233.467 236.231 233.154 237.606 232.587C237.605 232.59 243.416 230.882 247.235 223.315V227.871C247.235 227.871 245.277 242.234 231.471 243.806H229.267V246.044H266.868V243.806H264.665C250.858 242.234 248.9 227.871 248.9 227.871V223.622C249.611 225.327 253.545 233.665 262.384 233.458C262.508 233.461 262.631 233.467 262.755 233.467C269.651 233.467 275.24 227.383 275.24 219.878C275.24 212.373 269.651 206.288 262.755 206.288Z" fill="#1A1919"/>
<defs>
<filter id="filter0_d_247_10757" x="0.857178" y="0.744873" width="319.878" height="389.638" filterUnits="userSpaceOnUse" color-interpolation-filters="sRGB">
<feFlood flood-opacity="0" result="BackgroundImageFix"/>
<feColorMatrix in="SourceAlpha" type="matrix" values="0 0 0 0 0 0 0 0 0 0 0 0 0 0 0 0 0 0 127 0" result="hardAlpha"/>
<feOffset dy="5"/>
<feGaussianBlur stdDeviation="17"/>
<feColorMatrix type="matrix" values="0 0 0 0 0 0 0 0 0 0 0 0 0 0 0 0 0 0 0.1 0"/>
<feBlend mode="normal" in2="BackgroundImageFix" result="effect1_dropShadow_247_10757"/>
<feBlend mode="normal" in="SourceGraphic" in2="effect1_dropShadow_247_10757" result="shape"/>
</filter>
<filter id="filter1_d_247_10757" x="152" y="30" width="278" height="364" filterUnits="userSpaceOnUse" color-interpolation-filters="sRGB">
<feFlood flood-opacity="0" result="BackgroundImageFix"/>
<feColorMatrix in="SourceAlpha" type="matrix" values="0 0 0 0 0 0 0 0 0 0 0 0 0 0 0 0 0 0 127 0" result="hardAlpha"/>
<feOffset dy="5"/>
<feGaussianBlur stdDeviation="17"/>
<feColorMatrix type="matrix" values="0 0 0 0 0 0 0 0 0 0 0 0 0 0 0 0 0 0 0.1 0"/>
<feBlend mode="normal" in2="BackgroundImageFix" result="effect1_dropShadow_247_10757"/>
<feBlend mode="normal" in="SourceGraphic" in2="effect1_dropShadow_247_10757" result="shape"/>
</filter>
</defs>
</svg>
