<svg width="278" height="364" viewBox="0 0 278 364" fill="none" xmlns="http://www.w3.org/2000/svg">
<g filter="url(#filter0_d_166_10861)">
<rect x="34" y="29" width="210" height="296" rx="20" fill="#F2F2F2"/>
<rect x="34.5" y="29.5" width="209" height="295" rx="19.5" stroke="#D2D2D2"/>
</g>
<path d="M65.5156 51.2616V108.254H54.2656V64.2303L40.75 68.5272V59.66L64.3047 51.2616H65.5156ZM122.312 74.8163V84.66C122.312 88.9309 121.857 92.6158 120.945 95.7147C120.034 98.7876 118.719 101.314 117 103.293C115.307 105.246 113.289 106.691 110.945 107.629C108.602 108.566 105.997 109.035 103.133 109.035C100.841 109.035 98.7057 108.749 96.7266 108.176C94.7474 107.577 92.9635 106.652 91.375 105.402C89.8125 104.152 88.4583 102.577 87.3125 100.676C86.1927 98.7486 85.3333 96.4569 84.7344 93.8007C84.1354 91.1444 83.8359 88.0975 83.8359 84.66V74.8163C83.8359 70.5454 84.2917 66.8866 85.2031 63.8397C86.1406 60.7668 87.4557 58.2538 89.1484 56.3007C90.8672 54.3475 92.8984 52.9152 95.2422 52.0038C97.5859 51.0663 100.19 50.5975 103.055 50.5975C105.346 50.5975 107.469 50.897 109.422 51.496C111.401 52.0689 113.185 52.9673 114.773 54.1913C116.362 55.4152 117.716 56.9908 118.836 58.9178C119.956 60.8189 120.815 63.0975 121.414 65.7538C122.013 68.384 122.312 71.4048 122.312 74.8163ZM111.023 86.1444V73.2928C111.023 71.2356 110.906 69.4387 110.672 67.9022C110.464 66.3658 110.138 65.0637 109.695 63.996C109.253 62.9022 108.706 62.0168 108.055 61.3397C107.404 60.6626 106.661 60.1678 105.828 59.8553C104.995 59.5428 104.07 59.3866 103.055 59.3866C101.779 59.3866 100.646 59.634 99.6562 60.1288C98.6927 60.6236 97.8724 61.4178 97.1953 62.5116C96.5182 63.5793 95.9974 65.0116 95.6328 66.8085C95.2943 68.5793 95.125 70.7408 95.125 73.2928V86.1444C95.125 88.2017 95.2292 90.0116 95.4375 91.5741C95.6719 93.1366 96.0104 94.4777 96.4531 95.5975C96.9219 96.6913 97.4687 97.5897 98.0937 98.2928C98.7448 98.9699 99.487 99.4647 100.32 99.7772C101.18 100.09 102.117 100.246 103.133 100.246C104.383 100.246 105.49 99.9986 106.453 99.5038C107.443 98.9829 108.276 98.1757 108.953 97.0819C109.656 95.9621 110.177 94.5038 110.516 92.7069C110.854 90.91 111.023 88.7225 111.023 86.1444Z" fill="#050505"/>
<path fill-rule="evenodd" clip-rule="evenodd" d="M110.755 176.288C109.056 176.288 107.437 176.659 105.961 177.328C107.347 175.139 108.161 172.487 108.161 169.627C108.161 162.122 102.571 156.037 95.6759 156.037C88.7809 156.037 83.1913 162.122 83.1913 169.627C83.1913 172.35 83.93 174.884 85.197 177.01C83.9372 176.545 82.5883 176.288 81.1841 176.288C74.2888 176.288 68.6995 182.373 68.6995 189.878C68.6995 197.383 74.2888 203.467 81.1841 203.467C82.7413 203.467 84.2308 203.154 85.6056 202.587C85.6053 202.59 91.4158 200.882 95.2354 193.315V197.871C95.2354 197.871 93.277 212.234 79.4706 213.806H77.2672V216.044H114.868V213.806H112.665C98.8584 212.234 96.8999 197.871 96.8999 197.871V193.622C97.6113 195.327 101.545 203.665 110.384 203.458C110.508 203.461 110.631 203.467 110.755 203.467C117.651 203.467 123.24 197.383 123.24 189.878C123.24 182.373 117.651 176.288 110.755 176.288Z" fill="#1A1919"/>
<defs>
<filter id="filter0_d_166_10861" x="0" y="0" width="278" height="364" filterUnits="userSpaceOnUse" color-interpolation-filters="sRGB">
<feFlood flood-opacity="0" result="BackgroundImageFix"/>
<feColorMatrix in="SourceAlpha" type="matrix" values="0 0 0 0 0 0 0 0 0 0 0 0 0 0 0 0 0 0 127 0" result="hardAlpha"/>
<feOffset dy="5"/>
<feGaussianBlur stdDeviation="17"/>
<feColorMatrix type="matrix" values="0 0 0 0 0 0 0 0 0 0 0 0 0 0 0 0 0 0 0.1 0"/>
<feBlend mode="normal" in2="BackgroundImageFix" result="effect1_dropShadow_166_10861"/>
<feBlend mode="normal" in="SourceGraphic" in2="effect1_dropShadow_166_10861" result="shape"/>
</filter>
</defs>
</svg>
