<svg width="278" height="364" viewBox="0 0 278 364" fill="none" xmlns="http://www.w3.org/2000/svg">
<g filter="url(#filter0_d_166_10840)">
<rect x="34" y="29" width="210" height="296" rx="20" fill="#F2F2F2"/>
<rect x="34.5" y="29.5" width="209" height="295" rx="19.5" stroke="#D2D2D2"/>
</g>
<path d="M72.5859 74.9335H78.6016C80.5286 74.9335 82.1172 74.6079 83.3672 73.9569C84.6172 73.2798 85.5417 72.3423 86.1406 71.1444C86.7656 69.9204 87.0781 68.5012 87.0781 66.8866C87.0781 65.4283 86.7917 64.1392 86.2187 63.0194C85.6719 61.8736 84.8255 60.9882 83.6797 60.3632C82.5338 59.7121 81.0885 59.3866 79.3437 59.3866C77.9635 59.3866 76.6875 59.66 75.5156 60.2069C74.3437 60.7538 73.4062 61.522 72.7031 62.5116C72 63.5012 71.6484 64.6991 71.6484 66.1053H60.3594C60.3594 62.9803 61.1927 60.259 62.8594 57.9413C64.5521 55.6236 66.8177 53.8137 69.6562 52.5116C72.4948 51.2095 75.6198 50.5585 79.0312 50.5585C82.8854 50.5585 86.2578 51.1835 89.1484 52.4335C92.0391 53.6574 94.2917 55.4673 95.9062 57.8632C97.5208 60.259 98.3281 63.2277 98.3281 66.7694C98.3281 68.5663 97.9115 70.3111 97.0781 72.0038C96.2448 73.6704 95.0469 75.1809 93.4844 76.535C91.9479 77.8632 90.0729 78.9309 87.8594 79.7382C85.6458 80.5194 83.1588 80.91 80.3984 80.91H72.5859V74.9335ZM72.5859 83.4882V77.6678H80.3984C83.4974 77.6678 86.2187 78.0194 88.5625 78.7225C90.9062 79.4257 92.8724 80.4413 94.4609 81.7694C96.0495 83.0715 97.2474 84.621 98.0547 86.4178C98.862 88.1887 99.2656 90.1548 99.2656 92.3163C99.2656 94.9725 98.7578 97.3423 97.7422 99.4257C96.7266 101.483 95.2943 103.228 93.4453 104.66C91.6224 106.092 89.487 107.186 87.0391 107.941C84.5911 108.67 81.9219 109.035 79.0312 109.035C76.6354 109.035 74.2786 108.71 71.9609 108.058C69.6693 107.381 67.5859 106.379 65.7109 105.051C63.862 103.696 62.3776 102.004 61.2578 99.9725C60.1641 97.9152 59.6172 95.4803 59.6172 92.6678H70.9062C70.9062 94.1262 71.2708 95.4283 72 96.5741C72.7292 97.7199 73.7318 98.6184 75.0078 99.2694C76.3099 99.9204 77.7552 100.246 79.3437 100.246C81.1406 100.246 82.6771 99.9204 83.9531 99.2694C85.2552 98.5923 86.2448 97.6548 86.9219 96.4569C87.625 95.2329 87.9766 93.8137 87.9766 92.1991C87.9766 90.1158 87.599 88.4491 86.8437 87.1991C86.0885 85.9231 85.0078 84.9856 83.6016 84.3866C82.1953 83.7876 80.5286 83.4882 78.6016 83.4882H72.5859Z" fill="#050505"/>
<path fill-rule="evenodd" clip-rule="evenodd" d="M110.755 176.288C109.056 176.288 107.437 176.659 105.961 177.328C107.347 175.139 108.161 172.487 108.161 169.627C108.161 162.122 102.571 156.037 95.6759 156.037C88.7809 156.037 83.1913 162.122 83.1913 169.627C83.1913 172.35 83.93 174.884 85.197 177.01C83.9372 176.545 82.5883 176.288 81.1841 176.288C74.2888 176.288 68.6995 182.373 68.6995 189.878C68.6995 197.383 74.2888 203.467 81.1841 203.467C82.7413 203.467 84.2308 203.154 85.6056 202.587C85.6053 202.59 91.4158 200.882 95.2354 193.315V197.871C95.2354 197.871 93.277 212.234 79.4706 213.806H77.2672V216.044H114.868V213.806H112.665C98.8584 212.234 96.8999 197.871 96.8999 197.871V193.622C97.6113 195.327 101.545 203.665 110.384 203.458C110.508 203.461 110.631 203.467 110.755 203.467C117.651 203.467 123.24 197.383 123.24 189.878C123.24 182.373 117.651 176.288 110.755 176.288Z" fill="#1A1919"/>
<defs>
<filter id="filter0_d_166_10840" x="0" y="0" width="278" height="364" filterUnits="userSpaceOnUse" color-interpolation-filters="sRGB">
<feFlood flood-opacity="0" result="BackgroundImageFix"/>
<feColorMatrix in="SourceAlpha" type="matrix" values="0 0 0 0 0 0 0 0 0 0 0 0 0 0 0 0 0 0 127 0" result="hardAlpha"/>
<feOffset dy="5"/>
<feGaussianBlur stdDeviation="17"/>
<feColorMatrix type="matrix" values="0 0 0 0 0 0 0 0 0 0 0 0 0 0 0 0 0 0 0.1 0"/>
<feBlend mode="normal" in2="BackgroundImageFix" result="effect1_dropShadow_166_10840"/>
<feBlend mode="normal" in="SourceGraphic" in2="effect1_dropShadow_166_10840" result="shape"/>
</filter>
</defs>
</svg>
