<svg width="278" height="364" viewBox="0 0 278 364" fill="none" xmlns="http://www.w3.org/2000/svg">
<g filter="url(#filter0_d_166_10867)">
<rect x="34" y="29" width="210" height="296" rx="20" fill="#F2F2F2"/>
<rect x="34.5" y="29.5" width="209" height="295" rx="19.5" stroke="#D2D2D2"/>
</g>
<path d="M88.5234 99.8163L103.914 112.004L96.5312 118.41L81.375 106.223L88.5234 99.8163ZM104.305 78.4882V81.1835C104.305 85.5064 103.719 89.3866 102.547 92.8241C101.401 96.2616 99.7474 99.1913 97.5859 101.613C95.4245 104.009 92.8724 105.845 89.9297 107.121C86.987 108.397 83.7187 109.035 80.125 109.035C76.5573 109.035 73.2891 108.397 70.3203 107.121C67.3516 105.845 64.7865 104.009 62.625 101.613C60.4635 99.1913 58.7838 96.2616 57.5859 92.8241C56.4141 89.3866 55.8281 85.5064 55.8281 81.1835V78.4882C55.8281 74.1392 56.4141 70.259 57.5859 66.8475C58.7838 63.41 60.4505 60.4803 62.5859 58.0585C64.7213 55.6366 67.2734 53.7876 70.2422 52.5116C73.2109 51.2356 76.4792 50.5975 80.0469 50.5975C83.6406 50.5975 86.9088 51.2356 89.8516 52.5116C92.8203 53.7876 95.3854 55.6366 97.5469 58.0585C99.7083 60.4803 101.375 63.41 102.547 66.8475C103.719 70.259 104.305 74.1392 104.305 78.4882ZM92.4687 81.1835V78.41C92.4687 75.3892 92.1823 72.7329 91.6094 70.4413C91.0625 68.1496 90.2552 66.2225 89.1875 64.66C88.1458 63.0975 86.8568 61.9257 85.3203 61.1444C83.7838 60.3371 82.026 59.9335 80.0469 59.9335C78.0677 59.9335 76.3099 60.3371 74.7734 61.1444C73.237 61.9257 71.9479 63.0975 70.9062 64.66C69.8646 66.2225 69.0703 68.1496 68.5234 70.4413C67.9766 72.7329 67.7031 75.3892 67.7031 78.41V81.1835C67.7031 84.1783 67.9766 86.8345 68.5234 89.1522C69.0703 91.4439 69.8646 93.384 70.9062 94.9725C71.974 96.535 73.276 97.7199 74.8125 98.5272C76.375 99.3345 78.1458 99.7382 80.125 99.7382C82.1042 99.7382 83.849 99.3345 85.3594 98.5272C86.8958 97.7199 88.1849 96.535 89.2266 94.9725C90.2943 93.384 91.1016 91.4439 91.6484 89.1522C92.1953 86.8345 92.4687 84.1783 92.4687 81.1835Z" fill="#050505"/>
<path fill-rule="evenodd" clip-rule="evenodd" d="M110.755 176.288C109.056 176.288 107.437 176.659 105.961 177.328C107.347 175.139 108.161 172.487 108.161 169.627C108.161 162.122 102.571 156.037 95.6759 156.037C88.7809 156.037 83.1913 162.122 83.1913 169.627C83.1913 172.35 83.93 174.884 85.197 177.01C83.9372 176.545 82.5883 176.288 81.1841 176.288C74.2888 176.288 68.6995 182.373 68.6995 189.878C68.6995 197.383 74.2888 203.467 81.1841 203.467C82.7413 203.467 84.2308 203.154 85.6056 202.587C85.6053 202.59 91.4158 200.882 95.2354 193.315V197.871C95.2354 197.871 93.277 212.234 79.4706 213.806H77.2672V216.044H114.868V213.806H112.665C98.8584 212.234 96.8999 197.871 96.8999 197.871V193.622C97.6113 195.327 101.545 203.665 110.384 203.458C110.508 203.461 110.631 203.467 110.755 203.467C117.651 203.467 123.24 197.383 123.24 189.878C123.24 182.373 117.651 176.288 110.755 176.288Z" fill="#1A1919"/>
<defs>
<filter id="filter0_d_166_10867" x="0" y="0" width="278" height="364" filterUnits="userSpaceOnUse" color-interpolation-filters="sRGB">
<feFlood flood-opacity="0" result="BackgroundImageFix"/>
<feColorMatrix in="SourceAlpha" type="matrix" values="0 0 0 0 0 0 0 0 0 0 0 0 0 0 0 0 0 0 127 0" result="hardAlpha"/>
<feOffset dy="5"/>
<feGaussianBlur stdDeviation="17"/>
<feColorMatrix type="matrix" values="0 0 0 0 0 0 0 0 0 0 0 0 0 0 0 0 0 0 0.1 0"/>
<feBlend mode="normal" in2="BackgroundImageFix" result="effect1_dropShadow_166_10867"/>
<feBlend mode="normal" in="SourceGraphic" in2="effect1_dropShadow_166_10867" result="shape"/>
</filter>
</defs>
</svg>
