<svg width="278" height="364" viewBox="0 0 278 364" fill="none" xmlns="http://www.w3.org/2000/svg">
<g filter="url(#filter0_d_166_10846)">
<rect x="34" y="29" width="210" height="296" rx="20" fill="#F2F2F2"/>
<rect x="34.5" y="29.5" width="209" height="295" rx="19.5" stroke="#D2D2D2"/>
</g>
<path d="M71.6484 82.3553L62.6641 80.2069L65.9062 51.3788H97.8594V60.4803H75.1641L73.7578 73.0975C74.513 72.6548 75.6588 72.1861 77.1953 71.6913C78.7318 71.1704 80.4505 70.91 82.3516 70.91C85.112 70.91 87.5599 71.3397 89.6953 72.1991C91.8307 73.0585 93.6406 74.3085 95.125 75.9491C96.6354 77.5897 97.7812 79.5949 98.5625 81.9647C99.3437 84.3345 99.7344 87.0168 99.7344 90.0116C99.7344 92.5376 99.3437 94.9465 98.5625 97.2382C97.7812 99.5038 96.5963 101.535 95.0078 103.332C93.4193 105.103 91.4271 106.496 89.0312 107.512C86.6354 108.527 83.7969 109.035 80.5156 109.035C78.0677 109.035 75.6979 108.67 73.4062 107.941C71.1406 107.212 69.0963 106.131 67.2734 104.699C65.4766 103.267 64.0312 101.535 62.9375 99.5038C61.8698 97.4465 61.3099 95.1027 61.2578 92.4725H72.4297C72.5859 94.0871 73.0026 95.4803 73.6797 96.6522C74.3828 97.7981 75.3073 98.6835 76.4531 99.3085C77.599 99.9335 78.9401 100.246 80.4766 100.246C81.9088 100.246 83.1328 99.9725 84.1484 99.4257C85.1641 98.8788 85.9844 98.1236 86.6094 97.16C87.2344 96.1704 87.6901 95.0246 87.9766 93.7225C88.2891 92.3944 88.4453 90.9621 88.4453 89.4257C88.4453 87.8892 88.263 86.496 87.8984 85.246C87.5338 83.996 86.974 82.9152 86.2187 82.0038C85.4635 81.0923 84.5 80.3892 83.3281 79.8944C82.1823 79.3996 80.8411 79.1522 79.3047 79.1522C77.2213 79.1522 75.6068 79.4777 74.4609 80.1288C73.3411 80.7798 72.4036 81.522 71.6484 82.3553Z" fill="#050505"/>
<path fill-rule="evenodd" clip-rule="evenodd" d="M110.755 176.288C109.056 176.288 107.437 176.659 105.961 177.328C107.347 175.139 108.161 172.487 108.161 169.627C108.161 162.122 102.571 156.037 95.6759 156.037C88.7809 156.037 83.1913 162.122 83.1913 169.627C83.1913 172.35 83.93 174.884 85.197 177.01C83.9372 176.545 82.5883 176.288 81.1841 176.288C74.2888 176.288 68.6995 182.373 68.6995 189.878C68.6995 197.383 74.2888 203.467 81.1841 203.467C82.7413 203.467 84.2308 203.154 85.6056 202.587C85.6053 202.59 91.4158 200.882 95.2354 193.315V197.871C95.2354 197.871 93.277 212.234 79.4706 213.806H77.2672V216.044H114.868V213.806H112.665C98.8584 212.234 96.8999 197.871 96.8999 197.871V193.622C97.6113 195.327 101.545 203.665 110.384 203.458C110.508 203.461 110.631 203.467 110.755 203.467C117.651 203.467 123.24 197.383 123.24 189.878C123.24 182.373 117.651 176.288 110.755 176.288Z" fill="#1A1919"/>
<defs>
<filter id="filter0_d_166_10846" x="0" y="0" width="278" height="364" filterUnits="userSpaceOnUse" color-interpolation-filters="sRGB">
<feFlood flood-opacity="0" result="BackgroundImageFix"/>
<feColorMatrix in="SourceAlpha" type="matrix" values="0 0 0 0 0 0 0 0 0 0 0 0 0 0 0 0 0 0 127 0" result="hardAlpha"/>
<feOffset dy="5"/>
<feGaussianBlur stdDeviation="17"/>
<feColorMatrix type="matrix" values="0 0 0 0 0 0 0 0 0 0 0 0 0 0 0 0 0 0 0.1 0"/>
<feBlend mode="normal" in2="BackgroundImageFix" result="effect1_dropShadow_166_10846"/>
<feBlend mode="normal" in="SourceGraphic" in2="effect1_dropShadow_166_10846" result="shape"/>
</filter>
</defs>
</svg>
