<svg width="278" height="364" viewBox="0 0 278 364" fill="none" xmlns="http://www.w3.org/2000/svg">
<g filter="url(#filter0_d_166_10855)">
<rect x="34" y="29" width="210" height="296" rx="20" fill="#F2F2F2"/>
<rect x="34.5" y="29.5" width="209" height="295" rx="19.5" stroke="#D2D2D2"/>
</g>
<path d="M99.3828 92.6678C99.3828 96.2356 98.5495 99.2434 96.8828 101.691C95.2161 104.113 92.9245 105.949 90.0078 107.199C87.1172 108.423 83.8359 109.035 80.1641 109.035C76.4922 109.035 73.1979 108.423 70.2812 107.199C67.3646 105.949 65.0599 104.113 63.3672 101.691C61.6745 99.2434 60.8281 96.2356 60.8281 92.6678C60.8281 90.272 61.3099 88.1106 62.2734 86.1835C63.237 84.2303 64.5781 82.5637 66.2969 81.1835C68.0417 79.7772 70.0859 78.7095 72.4297 77.9803C74.7734 77.2251 77.3255 76.8475 80.0859 76.8475C83.7838 76.8475 87.0911 77.4986 90.0078 78.8007C92.9245 80.1027 95.2161 81.9387 96.8828 84.3085C98.5495 86.6783 99.3828 89.4647 99.3828 92.6678ZM88.0547 91.9257C88.0547 90.1809 87.7161 88.6835 87.0391 87.4335C86.388 86.1574 85.4635 85.1809 84.2656 84.5038C83.0677 83.8267 81.6745 83.4882 80.0859 83.4882C78.4974 83.4882 77.1042 83.8267 75.9062 84.5038C74.7083 85.1809 73.7708 86.1574 73.0937 87.4335C72.4427 88.6835 72.1172 90.1809 72.1172 91.9257C72.1172 93.6444 72.4427 95.1288 73.0937 96.3788C73.7708 97.6288 74.7083 98.5923 75.9062 99.2694C77.1302 99.9204 78.5495 100.246 80.1641 100.246C81.7786 100.246 83.1719 99.9204 84.3437 99.2694C85.5417 98.5923 86.4531 97.6288 87.0781 96.3788C87.7292 95.1288 88.0547 93.6444 88.0547 91.9257ZM98.1719 66.4569C98.1719 69.3475 97.4036 71.9126 95.8672 74.1522C94.3307 76.3658 92.1953 78.0975 89.4609 79.3475C86.7526 80.5975 83.6536 81.2225 80.1641 81.2225C76.6484 81.2225 73.5234 80.5975 70.7891 79.3475C68.0547 78.0975 65.9193 76.3658 64.3828 74.1522C62.8463 71.9126 62.0781 69.3475 62.0781 66.4569C62.0781 63.0194 62.8463 60.1288 64.3828 57.785C65.9453 55.4152 68.0807 53.6184 70.7891 52.3944C73.5234 51.1704 76.6224 50.5585 80.0859 50.5585C83.6016 50.5585 86.7135 51.1704 89.4219 52.3944C92.1562 53.6184 94.2917 55.4152 95.8281 57.785C97.3906 60.1288 98.1719 63.0194 98.1719 66.4569ZM86.9219 66.9647C86.9219 65.4283 86.6484 64.1001 86.1016 62.9803C85.5547 61.8345 84.7734 60.9491 83.7578 60.3241C82.7682 59.6991 81.5443 59.3866 80.0859 59.3866C78.6797 59.3866 77.4687 59.6861 76.4531 60.285C75.4635 60.884 74.6953 61.7564 74.1484 62.9022C73.6276 64.022 73.3672 65.3762 73.3672 66.9647C73.3672 68.5012 73.6276 69.8553 74.1484 71.0272C74.6953 72.1731 75.4766 73.0715 76.4922 73.7225C77.5078 74.3736 78.7318 74.6991 80.1641 74.6991C81.5963 74.6991 82.8073 74.3736 83.7969 73.7225C84.8125 73.0715 85.5807 72.1731 86.1016 71.0272C86.6484 69.8553 86.9219 68.5012 86.9219 66.9647Z" fill="#050505"/>
<path fill-rule="evenodd" clip-rule="evenodd" d="M110.755 176.288C109.056 176.288 107.437 176.659 105.961 177.328C107.347 175.139 108.161 172.487 108.161 169.627C108.161 162.122 102.571 156.037 95.6759 156.037C88.7809 156.037 83.1913 162.122 83.1913 169.627C83.1913 172.35 83.93 174.884 85.197 177.01C83.9372 176.545 82.5884 176.288 81.1841 176.288C74.2889 176.288 68.6995 182.373 68.6995 189.878C68.6995 197.383 74.2889 203.467 81.1841 203.467C82.7413 203.467 84.2309 203.154 85.6056 202.587C85.6054 202.59 91.4159 200.882 95.2354 193.315V197.871C95.2354 197.871 93.277 212.234 79.4706 213.806H77.2672V216.044H114.868V213.806H112.665C98.8584 212.234 96.8999 197.871 96.8999 197.871V193.622C97.6113 195.327 101.545 203.665 110.384 203.458C110.508 203.461 110.631 203.467 110.755 203.467C117.651 203.467 123.24 197.383 123.24 189.878C123.24 182.373 117.651 176.288 110.755 176.288Z" fill="#1A1919"/>
<defs>
<filter id="filter0_d_166_10855" x="0" y="0" width="278" height="364" filterUnits="userSpaceOnUse" color-interpolation-filters="sRGB">
<feFlood flood-opacity="0" result="BackgroundImageFix"/>
<feColorMatrix in="SourceAlpha" type="matrix" values="0 0 0 0 0 0 0 0 0 0 0 0 0 0 0 0 0 0 127 0" result="hardAlpha"/>
<feOffset dy="5"/>
<feGaussianBlur stdDeviation="17"/>
<feColorMatrix type="matrix" values="0 0 0 0 0 0 0 0 0 0 0 0 0 0 0 0 0 0 0.1 0"/>
<feBlend mode="normal" in2="BackgroundImageFix" result="effect1_dropShadow_166_10855"/>
<feBlend mode="normal" in="SourceGraphic" in2="effect1_dropShadow_166_10855" result="shape"/>
</filter>
</defs>
</svg>
