<svg width="278" height="364" viewBox="0 0 278 364" fill="none" xmlns="http://www.w3.org/2000/svg">
<g filter="url(#filter0_d_166_10837)">
<rect x="34" y="29" width="210" height="296" rx="20" fill="#F2F2F2"/>
<rect x="34.5" y="29.5" width="209" height="295" rx="19.5" stroke="#D2D2D2"/>
</g>
<path d="M99.9687 99.4647V108.254H61.0625V100.754L79.4609 81.0272C81.3099 78.9699 82.7682 77.16 83.8359 75.5975C84.9036 74.009 85.6719 72.5897 86.1406 71.3397C86.6354 70.0637 86.8828 68.8527 86.8828 67.7069C86.8828 65.9882 86.5963 64.5168 86.0234 63.2928C85.4505 62.0428 84.6042 61.0793 83.4844 60.4022C82.3906 59.7251 81.0365 59.3866 79.4219 59.3866C77.7031 59.3866 76.2187 59.8033 74.9687 60.6366C73.7448 61.4699 72.8073 62.6288 72.1562 64.1132C71.5312 65.5975 71.2187 67.2772 71.2187 69.1522H59.9297C59.9297 65.7668 60.737 62.6678 62.3516 59.8553C63.9661 57.0168 66.2448 54.7642 69.1875 53.0975C72.1302 51.4048 75.6198 50.5585 79.6562 50.5585C83.6406 50.5585 87 51.2095 89.7344 52.5116C92.4948 53.7876 94.5781 55.6366 95.9844 58.0585C97.4167 60.4543 98.1328 63.3189 98.1328 66.6522C98.1328 68.5272 97.8333 70.3632 97.2344 72.16C96.6354 73.9309 95.776 75.7017 94.6562 77.4725C93.5625 79.2173 92.2344 80.9882 90.6719 82.785C89.1094 84.5819 87.3776 86.4439 85.4766 88.371L75.5937 99.4647H99.9687Z" fill="#050505"/>
<path fill-rule="evenodd" clip-rule="evenodd" d="M110.755 176.288C109.056 176.288 107.437 176.659 105.961 177.328C107.347 175.139 108.161 172.487 108.161 169.627C108.161 162.122 102.571 156.037 95.6759 156.037C88.7809 156.037 83.1913 162.122 83.1913 169.627C83.1913 172.35 83.93 174.884 85.197 177.01C83.9372 176.545 82.5883 176.288 81.1841 176.288C74.2888 176.288 68.6995 182.373 68.6995 189.878C68.6995 197.383 74.2888 203.467 81.1841 203.467C82.7413 203.467 84.2308 203.154 85.6056 202.587C85.6053 202.59 91.4158 200.882 95.2354 193.315V197.871C95.2354 197.871 93.277 212.234 79.4706 213.806H77.2672V216.044H114.868V213.806H112.665C98.8584 212.234 96.8999 197.871 96.8999 197.871V193.622C97.6113 195.327 101.545 203.665 110.384 203.458C110.508 203.461 110.631 203.467 110.755 203.467C117.651 203.467 123.24 197.383 123.24 189.878C123.24 182.373 117.651 176.288 110.755 176.288Z" fill="#1A1919"/>
<defs>
<filter id="filter0_d_166_10837" x="0" y="0" width="278" height="364" filterUnits="userSpaceOnUse" color-interpolation-filters="sRGB">
<feFlood flood-opacity="0" result="BackgroundImageFix"/>
<feColorMatrix in="SourceAlpha" type="matrix" values="0 0 0 0 0 0 0 0 0 0 0 0 0 0 0 0 0 0 127 0" result="hardAlpha"/>
<feOffset dy="5"/>
<feGaussianBlur stdDeviation="17"/>
<feColorMatrix type="matrix" values="0 0 0 0 0 0 0 0 0 0 0 0 0 0 0 0 0 0 0.1 0"/>
<feBlend mode="normal" in2="BackgroundImageFix" result="effect1_dropShadow_166_10837"/>
<feBlend mode="normal" in="SourceGraphic" in2="effect1_dropShadow_166_10837" result="shape"/>
</filter>
</defs>
</svg>
