<svg width="278" height="364" viewBox="0 0 278 364" fill="none" xmlns="http://www.w3.org/2000/svg">
<g filter="url(#filter0_d_166_10849)">
<rect x="34" y="29" width="210" height="296" rx="20" fill="#F2F2F2"/>
<rect x="34.5" y="29.5" width="209" height="295" rx="19.5" stroke="#D2D2D2"/>
</g>
<path d="M90.0859 50.7928H91.7266V59.7772H91.0625C88.0937 59.7772 85.4505 60.2199 83.1328 61.1053C80.8151 61.9908 78.849 63.2538 77.2344 64.8944C75.6458 66.509 74.4219 68.4621 73.5625 70.7538C72.7292 73.0454 72.3125 75.6106 72.3125 78.4491V87.9022C72.3125 89.9335 72.5078 91.7303 72.8984 93.2928C73.3151 94.8293 73.901 96.1184 74.6562 97.16C75.4375 98.1757 76.349 98.9439 77.3906 99.4647C78.4323 99.9595 79.6042 100.207 80.9062 100.207C82.1302 100.207 83.237 99.9465 84.2266 99.4257C85.2422 98.9048 86.1016 98.1757 86.8047 97.2382C87.5338 96.2746 88.0807 95.1548 88.4453 93.8788C88.8359 92.5767 89.0312 91.1574 89.0312 89.621C89.0312 88.0845 88.8359 86.6652 88.4453 85.3632C88.0807 84.0611 87.5338 82.9413 86.8047 82.0038C86.0755 81.0402 85.1901 80.2981 84.1484 79.7772C83.1068 79.2564 81.9349 78.996 80.6328 78.996C78.862 78.996 77.2995 79.4126 75.9453 80.246C74.6172 81.0533 73.5755 82.0949 72.8203 83.371C72.0651 84.647 71.6615 85.9882 71.6094 87.3944L68.2109 85.2069C68.2891 83.2017 68.7057 81.3007 69.4609 79.5038C70.2422 77.7069 71.3099 76.1184 72.6641 74.7382C74.0443 73.3319 75.6979 72.2382 77.625 71.4569C79.5521 70.6496 81.7266 70.246 84.1484 70.246C86.8047 70.246 89.1354 70.7538 91.1406 71.7694C93.1719 72.785 94.8646 74.1783 96.2187 75.9491C97.5729 77.7199 98.5885 79.7642 99.2656 82.0819C99.9427 84.3996 100.281 86.8736 100.281 89.5038C100.281 92.2642 99.8255 94.8293 98.9141 97.1991C98.0286 99.5689 96.7396 101.639 95.0469 103.41C93.3802 105.181 91.375 106.561 89.0312 107.551C86.6875 108.54 84.0573 109.035 81.1406 109.035C78.1198 109.035 75.3724 108.488 72.8984 107.394C70.4505 106.275 68.3411 104.712 66.5703 102.707C64.7995 100.702 63.4323 98.3189 62.4687 95.5585C61.5312 92.7981 61.0625 89.7772 61.0625 86.496V82.121C61.0625 77.5376 61.7266 73.3449 63.0547 69.5428C64.4088 65.7147 66.349 62.4074 68.875 59.621C71.401 56.8085 74.4479 54.634 78.0156 53.0975C81.5833 51.5611 85.6068 50.7928 90.0859 50.7928Z" fill="#050505"/>
<path fill-rule="evenodd" clip-rule="evenodd" d="M110.755 176.288C109.056 176.288 107.437 176.659 105.961 177.328C107.347 175.139 108.161 172.487 108.161 169.627C108.161 162.122 102.571 156.037 95.6759 156.037C88.7809 156.037 83.1913 162.122 83.1913 169.627C83.1913 172.35 83.93 174.884 85.197 177.01C83.9372 176.545 82.5883 176.288 81.1841 176.288C74.2888 176.288 68.6995 182.373 68.6995 189.878C68.6995 197.383 74.2888 203.467 81.1841 203.467C82.7413 203.467 84.2308 203.154 85.6056 202.587C85.6053 202.59 91.4158 200.882 95.2354 193.315V197.871C95.2354 197.871 93.277 212.234 79.4706 213.806H77.2672V216.044H114.868V213.806H112.665C98.8584 212.234 96.8999 197.871 96.8999 197.871V193.622C97.6113 195.327 101.545 203.665 110.384 203.458C110.508 203.461 110.631 203.467 110.755 203.467C117.651 203.467 123.24 197.383 123.24 189.878C123.24 182.373 117.651 176.288 110.755 176.288Z" fill="#1A1919"/>
<defs>
<filter id="filter0_d_166_10849" x="0" y="0" width="278" height="364" filterUnits="userSpaceOnUse" color-interpolation-filters="sRGB">
<feFlood flood-opacity="0" result="BackgroundImageFix"/>
<feColorMatrix in="SourceAlpha" type="matrix" values="0 0 0 0 0 0 0 0 0 0 0 0 0 0 0 0 0 0 127 0" result="hardAlpha"/>
<feOffset dy="5"/>
<feGaussianBlur stdDeviation="17"/>
<feColorMatrix type="matrix" values="0 0 0 0 0 0 0 0 0 0 0 0 0 0 0 0 0 0 0.1 0"/>
<feBlend mode="normal" in2="BackgroundImageFix" result="effect1_dropShadow_166_10849"/>
<feBlend mode="normal" in="SourceGraphic" in2="effect1_dropShadow_166_10849" result="shape"/>
</filter>
</defs>
</svg>
