<svg width="278" height="364" viewBox="0 0 278 364" fill="none" xmlns="http://www.w3.org/2000/svg">
<g filter="url(#filter0_d_166_10858)">
<rect x="34" y="29" width="210" height="296" rx="20" fill="#F2F2F2"/>
<rect x="34.5" y="29.5" width="209" height="295" rx="19.5" stroke="#D2D2D2"/>
</g>
<path d="M69.0312 99.6991H69.7734C72.8984 99.6991 75.5807 99.3215 77.8203 98.5663C80.0859 97.785 81.9479 96.6652 83.4062 95.2069C84.8646 93.7486 85.9453 91.9647 86.6484 89.8553C87.3516 87.7199 87.7031 85.2981 87.7031 82.5897V71.8085C87.7031 69.7512 87.4948 67.9413 87.0781 66.3788C86.6875 64.8163 86.1146 63.5272 85.3594 62.5116C84.6302 61.4699 83.7708 60.6887 82.7812 60.1678C81.8177 59.647 80.75 59.3866 79.5781 59.3866C78.3281 59.3866 77.2213 59.6991 76.2578 60.3241C75.2943 60.9231 74.474 61.7434 73.7969 62.785C73.1458 63.8267 72.638 65.0246 72.2734 66.3788C71.9349 67.7069 71.7656 69.1001 71.7656 70.5585C71.7656 72.0168 71.9349 73.41 72.2734 74.7382C72.612 76.0402 73.1198 77.1991 73.7969 78.2147C74.474 79.2043 75.3203 79.9986 76.3359 80.5975C77.3516 81.1704 78.5495 81.4569 79.9297 81.4569C81.2578 81.4569 82.4427 81.2095 83.4844 80.7147C84.5521 80.1939 85.4505 79.5168 86.1797 78.6835C86.9349 77.8501 87.5078 76.9257 87.8984 75.91C88.3151 74.8944 88.5234 73.8658 88.5234 72.8241L92.2344 74.8553C92.2344 76.6783 91.8437 78.4751 91.0625 80.246C90.2812 82.0168 89.1875 83.6314 87.7812 85.0897C86.401 86.522 84.7995 87.6678 82.9766 88.5272C81.1536 89.3866 79.2005 89.8163 77.1172 89.8163C74.4609 89.8163 72.1042 89.3345 70.0469 88.371C67.9896 87.3814 66.2448 86.0272 64.8125 84.3085C63.4062 82.5637 62.3385 80.5324 61.6094 78.2147C60.8802 75.897 60.5156 73.384 60.5156 70.6757C60.5156 67.9152 60.9583 65.3241 61.8437 62.9022C62.7552 60.4803 64.0443 58.3449 65.7109 56.496C67.4036 54.647 69.4219 53.2017 71.7656 52.16C74.1354 51.0923 76.7656 50.5585 79.6562 50.5585C82.5469 50.5585 85.1771 51.1184 87.5469 52.2382C89.9167 53.3579 91.9479 54.9465 93.6406 57.0038C95.3333 59.035 96.6354 61.4699 97.5469 64.3085C98.4844 67.147 98.9531 70.2981 98.9531 73.7616V77.6678C98.9531 81.3658 98.5495 84.8033 97.7422 87.9803C96.9609 91.1574 95.776 94.035 94.1875 96.6132C92.625 99.1652 90.6719 101.353 88.3281 103.176C86.0104 104.999 83.3151 106.392 80.2422 107.355C77.1693 108.319 73.7318 108.801 69.9297 108.801H69.0312V99.6991Z" fill="#050505"/>
<path fill-rule="evenodd" clip-rule="evenodd" d="M110.755 176.288C109.056 176.288 107.437 176.659 105.961 177.328C107.347 175.139 108.161 172.487 108.161 169.627C108.161 162.122 102.571 156.037 95.6759 156.037C88.7809 156.037 83.1913 162.122 83.1913 169.627C83.1913 172.35 83.93 174.884 85.197 177.01C83.9372 176.545 82.5883 176.288 81.1841 176.288C74.2889 176.288 68.6995 182.373 68.6995 189.878C68.6995 197.383 74.2889 203.467 81.1841 203.467C82.7413 203.467 84.2308 203.154 85.6056 202.587C85.6054 202.59 91.4158 200.882 95.2354 193.315V197.871C95.2354 197.871 93.277 212.234 79.4706 213.806H77.2672V216.044H114.868V213.806H112.665C98.8584 212.234 96.8999 197.871 96.8999 197.871V193.622C97.6113 195.327 101.545 203.665 110.384 203.458C110.508 203.461 110.631 203.467 110.755 203.467C117.651 203.467 123.24 197.383 123.24 189.878C123.24 182.373 117.651 176.288 110.755 176.288Z" fill="#1A1919"/>
<defs>
<filter id="filter0_d_166_10858" x="0" y="0" width="278" height="364" filterUnits="userSpaceOnUse" color-interpolation-filters="sRGB">
<feFlood flood-opacity="0" result="BackgroundImageFix"/>
<feColorMatrix in="SourceAlpha" type="matrix" values="0 0 0 0 0 0 0 0 0 0 0 0 0 0 0 0 0 0 127 0" result="hardAlpha"/>
<feOffset dy="5"/>
<feGaussianBlur stdDeviation="17"/>
<feColorMatrix type="matrix" values="0 0 0 0 0 0 0 0 0 0 0 0 0 0 0 0 0 0 0.1 0"/>
<feBlend mode="normal" in2="BackgroundImageFix" result="effect1_dropShadow_166_10858"/>
<feBlend mode="normal" in="SourceGraphic" in2="effect1_dropShadow_166_10858" result="shape"/>
</filter>
</defs>
</svg>
