<svg width="278" height="364" viewBox="0 0 278 364" fill="none" xmlns="http://www.w3.org/2000/svg">
<g filter="url(#filter0_d_166_10864)">
<rect x="34" y="29" width="210" height="296" rx="20" fill="#F2F2F2"/>
<rect x="34.5" y="29.5" width="209" height="295" rx="19.5" stroke="#D2D2D2"/>
</g>
<path d="M85.8672 90.7928V51.3788H97.5469V90.7928C97.5469 94.5949 96.7135 97.8632 95.0469 100.598C93.3802 103.306 91.1016 105.389 88.2109 106.848C85.3463 108.306 82.1172 109.035 78.5234 109.035C74.7995 109.035 71.5052 108.41 68.6406 107.16C65.776 105.91 63.5234 103.996 61.8828 101.418C60.2422 98.8137 59.4219 95.5194 59.4219 91.535H71.1797C71.1797 93.6184 71.4661 95.272 72.0391 96.496C72.638 97.7199 73.4844 98.5923 74.5781 99.1132C75.6719 99.634 76.987 99.8944 78.5234 99.8944C80.0078 99.8944 81.2969 99.5428 82.3906 98.8397C83.4844 98.1366 84.3307 97.1079 84.9297 95.7538C85.5547 94.3996 85.8672 92.746 85.8672 90.7928Z" fill="#050505"/>
<path fill-rule="evenodd" clip-rule="evenodd" d="M110.755 176.288C109.056 176.288 107.437 176.659 105.961 177.328C107.347 175.139 108.161 172.487 108.161 169.627C108.161 162.122 102.571 156.037 95.6759 156.037C88.7809 156.037 83.1913 162.122 83.1913 169.627C83.1913 172.35 83.93 174.884 85.197 177.01C83.9372 176.545 82.5883 176.288 81.1841 176.288C74.2888 176.288 68.6995 182.373 68.6995 189.878C68.6995 197.383 74.2888 203.467 81.1841 203.467C82.7413 203.467 84.2308 203.154 85.6056 202.587C85.6053 202.59 91.4158 200.882 95.2354 193.315V197.871C95.2354 197.871 93.277 212.234 79.4706 213.806H77.2672V216.044H114.868V213.806H112.665C98.8584 212.234 96.8999 197.871 96.8999 197.871V193.622C97.6113 195.327 101.545 203.665 110.384 203.458C110.508 203.461 110.631 203.467 110.755 203.467C117.651 203.467 123.24 197.383 123.24 189.878C123.24 182.373 117.651 176.288 110.755 176.288Z" fill="#1A1919"/>
<defs>
<filter id="filter0_d_166_10864" x="0" y="0" width="278" height="364" filterUnits="userSpaceOnUse" color-interpolation-filters="sRGB">
<feFlood flood-opacity="0" result="BackgroundImageFix"/>
<feColorMatrix in="SourceAlpha" type="matrix" values="0 0 0 0 0 0 0 0 0 0 0 0 0 0 0 0 0 0 127 0" result="hardAlpha"/>
<feOffset dy="5"/>
<feGaussianBlur stdDeviation="17"/>
<feColorMatrix type="matrix" values="0 0 0 0 0 0 0 0 0 0 0 0 0 0 0 0 0 0 0.1 0"/>
<feBlend mode="normal" in2="BackgroundImageFix" result="effect1_dropShadow_166_10864"/>
<feBlend mode="normal" in="SourceGraphic" in2="effect1_dropShadow_166_10864" result="shape"/>
</filter>
</defs>
</svg>
