<svg width="278" height="364" viewBox="0 0 278 364" fill="none" xmlns="http://www.w3.org/2000/svg">
<g filter="url(#filter0_d_166_10883)">
<rect x="34" y="29" width="210" height="296" rx="20" fill="#F2F2F2"/>
<rect x="34.5" y="29.5" width="209" height="295" rx="19.5" stroke="#D2D2D2"/>
</g>
<path d="M88.5234 99.8164L103.914 112.004L96.5312 118.41L81.375 106.223L88.5234 99.8164ZM104.305 78.4883V81.1836C104.305 85.5065 103.719 89.3867 102.547 92.8242C101.401 96.2617 99.7474 99.1914 97.5859 101.613C95.4245 104.009 92.8724 105.845 89.9297 107.121C86.987 108.397 83.7187 109.035 80.125 109.035C76.5573 109.035 73.2891 108.397 70.3203 107.121C67.3516 105.845 64.7865 104.009 62.625 101.613C60.4635 99.1914 58.7838 96.2617 57.5859 92.8242C56.4141 89.3867 55.8281 85.5065 55.8281 81.1836V78.4883C55.8281 74.1393 56.4141 70.2591 57.5859 66.8477C58.7838 63.4102 60.4505 60.4805 62.5859 58.0586C64.7213 55.6367 67.2734 53.7878 70.2422 52.5117C73.2109 51.2357 76.4792 50.5977 80.0469 50.5977C83.6406 50.5977 86.9088 51.2357 89.8516 52.5117C92.8203 53.7878 95.3854 55.6367 97.5469 58.0586C99.7083 60.4805 101.375 63.4102 102.547 66.8477C103.719 70.2591 104.305 74.1393 104.305 78.4883ZM92.4687 81.1836V78.4102C92.4687 75.3893 92.1823 72.7331 91.6094 70.4414C91.0625 68.1497 90.2552 66.2227 89.1875 64.6602C88.1458 63.0977 86.8568 61.9258 85.3203 61.1445C83.7838 60.3372 82.026 59.9336 80.0469 59.9336C78.0677 59.9336 76.3099 60.3372 74.7734 61.1445C73.237 61.9258 71.9479 63.0977 70.9062 64.6602C69.8646 66.2227 69.0703 68.1497 68.5234 70.4414C67.9766 72.7331 67.7031 75.3893 67.7031 78.4102V81.1836C67.7031 84.1784 67.9766 86.8346 68.5234 89.1523C69.0703 91.444 69.8646 93.3841 70.9062 94.9727C71.974 96.5352 73.276 97.72 74.8125 98.5273C76.375 99.3346 78.1458 99.7383 80.125 99.7383C82.1042 99.7383 83.849 99.3346 85.3594 98.5273C86.8958 97.72 88.1849 96.5352 89.2266 94.9727C90.2943 93.3841 91.1016 91.444 91.6484 89.1523C92.1953 86.8346 92.4687 84.1784 92.4687 81.1836Z" fill="#F24822"/>
<path fill-rule="evenodd" clip-rule="evenodd" d="M67.2307 185.628L96.5044 215.831L125.778 185.628L96.5044 155.425L67.2307 185.628Z" fill="#F24822"/>
<defs>
<filter id="filter0_d_166_10883" x="0" y="0" width="278" height="364" filterUnits="userSpaceOnUse" color-interpolation-filters="sRGB">
<feFlood flood-opacity="0" result="BackgroundImageFix"/>
<feColorMatrix in="SourceAlpha" type="matrix" values="0 0 0 0 0 0 0 0 0 0 0 0 0 0 0 0 0 0 127 0" result="hardAlpha"/>
<feOffset dy="5"/>
<feGaussianBlur stdDeviation="17"/>
<feColorMatrix type="matrix" values="0 0 0 0 0 0 0 0 0 0 0 0 0 0 0 0 0 0 0.1 0"/>
<feBlend mode="normal" in2="BackgroundImageFix" result="effect1_dropShadow_166_10883"/>
<feBlend mode="normal" in="SourceGraphic" in2="effect1_dropShadow_166_10883" result="shape"/>
</filter>
</defs>
</svg>
