<svg width="278" height="364" viewBox="0 0 278 364" fill="none" xmlns="http://www.w3.org/2000/svg">
<g filter="url(#filter0_d_166_10874)">
<rect x="34" y="29" width="210" height="296" rx="20" fill="#F2F2F2"/>
<rect x="34.5" y="29.5" width="209" height="295" rx="19.5" stroke="#D2D2D2"/>
</g>
<path d="M72.5859 74.9336H78.6016C80.5286 74.9336 82.1172 74.6081 83.3672 73.957C84.6172 73.2799 85.5417 72.3424 86.1406 71.1445C86.7656 69.9206 87.0781 68.5013 87.0781 66.8867C87.0781 65.4284 86.7917 64.1393 86.2187 63.0195C85.6719 61.8737 84.8255 60.9883 83.6797 60.3633C82.5338 59.7122 81.0885 59.3867 79.3437 59.3867C77.9635 59.3867 76.6875 59.6602 75.5156 60.207C74.3437 60.7539 73.4062 61.5221 72.7031 62.5117C72 63.5013 71.6484 64.6992 71.6484 66.1055H60.3594C60.3594 62.9805 61.1927 60.2591 62.8594 57.9414C64.5521 55.6237 66.8177 53.8138 69.6562 52.5117C72.4948 51.2096 75.6198 50.5586 79.0312 50.5586C82.8854 50.5586 86.2578 51.1836 89.1484 52.4336C92.0391 53.6576 94.2917 55.4674 95.9062 57.8633C97.5208 60.2591 98.3281 63.2279 98.3281 66.7695C98.3281 68.5664 97.9115 70.3112 97.0781 72.0039C96.2448 73.6706 95.0469 75.181 93.4844 76.5352C91.9479 77.8633 90.0729 78.931 87.8594 79.7383C85.6458 80.5195 83.1588 80.9102 80.3984 80.9102H72.5859V74.9336ZM72.5859 83.4883V77.668H80.3984C83.4974 77.668 86.2187 78.0195 88.5625 78.7227C90.9062 79.4258 92.8724 80.4414 94.4609 81.7695C96.0495 83.0716 97.2474 84.6211 98.0547 86.418C98.862 88.1888 99.2656 90.1549 99.2656 92.3164C99.2656 94.9727 98.7578 97.3424 97.7422 99.4258C96.7266 101.483 95.2943 103.228 93.4453 104.66C91.6224 106.092 89.487 107.186 87.0391 107.941C84.5911 108.671 81.9219 109.035 79.0312 109.035C76.6354 109.035 74.2786 108.71 71.9609 108.059C69.6693 107.382 67.5859 106.379 65.7109 105.051C63.862 103.697 62.3776 102.004 61.2578 99.9727C60.1641 97.9154 59.6172 95.4805 59.6172 92.668H70.9062C70.9062 94.1263 71.2708 95.4284 72 96.5742C72.7292 97.72 73.7318 98.6185 75.0078 99.2695C76.3099 99.9206 77.7552 100.246 79.3437 100.246C81.1406 100.246 82.6771 99.9206 83.9531 99.2695C85.2552 98.5924 86.2448 97.6549 86.9219 96.457C87.625 95.2331 87.9766 93.8138 87.9766 92.1992C87.9766 90.1159 87.599 88.4492 86.8437 87.1992C86.0885 85.9232 85.0078 84.9857 83.6016 84.3867C82.1953 83.7878 80.5286 83.4883 78.6016 83.4883H72.5859Z" fill="#F24822"/>
<path fill-rule="evenodd" clip-rule="evenodd" d="M67.2307 185.628L96.5044 215.831L125.778 185.628L96.5044 155.425L67.2307 185.628Z" fill="#F24822"/>
<defs>
<filter id="filter0_d_166_10874" x="0" y="0" width="278" height="364" filterUnits="userSpaceOnUse" color-interpolation-filters="sRGB">
<feFlood flood-opacity="0" result="BackgroundImageFix"/>
<feColorMatrix in="SourceAlpha" type="matrix" values="0 0 0 0 0 0 0 0 0 0 0 0 0 0 0 0 0 0 127 0" result="hardAlpha"/>
<feOffset dy="5"/>
<feGaussianBlur stdDeviation="17"/>
<feColorMatrix type="matrix" values="0 0 0 0 0 0 0 0 0 0 0 0 0 0 0 0 0 0 0.1 0"/>
<feBlend mode="normal" in2="BackgroundImageFix" result="effect1_dropShadow_166_10874"/>
<feBlend mode="normal" in="SourceGraphic" in2="effect1_dropShadow_166_10874" result="shape"/>
</filter>
</defs>
</svg>
