<svg width="278" height="364" viewBox="0 0 278 364" fill="none" xmlns="http://www.w3.org/2000/svg">
<g filter="url(#filter0_d_166_10880)">
<rect x="34" y="29" width="210" height="296" rx="20" fill="#F2F2F2"/>
<rect x="34.5" y="29.5" width="209" height="295" rx="19.5" stroke="#D2D2D2"/>
</g>
<path d="M69.0312 99.6992H69.7734C72.8984 99.6992 75.5807 99.3216 77.8203 98.5664C80.0859 97.7852 81.9479 96.6654 83.4062 95.207C84.8646 93.7487 85.9453 91.9648 86.6484 89.8555C87.3516 87.72 87.7031 85.2982 87.7031 82.5898V71.8086C87.7031 69.7513 87.4948 67.9414 87.0781 66.3789C86.6875 64.8164 86.1146 63.5273 85.3594 62.5117C84.6302 61.4701 83.7708 60.6888 82.7812 60.168C81.8177 59.6471 80.75 59.3867 79.5781 59.3867C78.3281 59.3867 77.2213 59.6992 76.2578 60.3242C75.2943 60.9232 74.474 61.7435 73.7969 62.7852C73.1458 63.8268 72.638 65.0247 72.2734 66.3789C71.9349 67.707 71.7656 69.1003 71.7656 70.5586C71.7656 72.0169 71.9349 73.4102 72.2734 74.7383C72.612 76.0404 73.1198 77.1992 73.7969 78.2148C74.474 79.2044 75.3203 79.9987 76.3359 80.5977C77.3516 81.1706 78.5495 81.457 79.9297 81.457C81.2578 81.457 82.4427 81.2096 83.4844 80.7148C84.5521 80.194 85.4505 79.5169 86.1797 78.6836C86.9349 77.8503 87.5078 76.9258 87.8984 75.9102C88.3151 74.8945 88.5234 73.8659 88.5234 72.8242L92.2344 74.8555C92.2344 76.6784 91.8437 78.4753 91.0625 80.2461C90.2812 82.0169 89.1875 83.6315 87.7812 85.0898C86.401 86.5221 84.7995 87.668 82.9766 88.5273C81.1536 89.3867 79.2005 89.8164 77.1172 89.8164C74.4609 89.8164 72.1042 89.3346 70.0469 88.3711C67.9896 87.3815 66.2448 86.0273 64.8125 84.3086C63.4062 82.5638 62.3385 80.5325 61.6094 78.2148C60.8802 75.8971 60.5156 73.3841 60.5156 70.6758C60.5156 67.9154 60.9583 65.3242 61.8437 62.9023C62.7552 60.4805 64.0443 58.3451 65.7109 56.4961C67.4036 54.6471 69.4219 53.2018 71.7656 52.1602C74.1354 51.0924 76.7656 50.5586 79.6562 50.5586C82.5469 50.5586 85.1771 51.1185 87.5469 52.2383C89.9167 53.3581 91.9479 54.9466 93.6406 57.0039C95.3333 59.0352 96.6354 61.4701 97.5469 64.3086C98.4844 67.1471 98.9531 70.2982 98.9531 73.7617V77.668C98.9531 81.3659 98.5495 84.8034 97.7422 87.9805C96.9609 91.1575 95.776 94.0352 94.1875 96.6133C92.625 99.1654 90.6719 101.353 88.3281 103.176C86.0104 104.999 83.3151 106.392 80.2422 107.355C77.1693 108.319 73.7318 108.801 69.9297 108.801H69.0312V99.6992Z" fill="#F24822"/>
<path fill-rule="evenodd" clip-rule="evenodd" d="M67.2307 185.628L96.5044 215.831L125.778 185.628L96.5044 155.425L67.2307 185.628Z" fill="#F24822"/>
<defs>
<filter id="filter0_d_166_10880" x="0" y="0" width="278" height="364" filterUnits="userSpaceOnUse" color-interpolation-filters="sRGB">
<feFlood flood-opacity="0" result="BackgroundImageFix"/>
<feColorMatrix in="SourceAlpha" type="matrix" values="0 0 0 0 0 0 0 0 0 0 0 0 0 0 0 0 0 0 127 0" result="hardAlpha"/>
<feOffset dy="5"/>
<feGaussianBlur stdDeviation="17"/>
<feColorMatrix type="matrix" values="0 0 0 0 0 0 0 0 0 0 0 0 0 0 0 0 0 0 0.1 0"/>
<feBlend mode="normal" in2="BackgroundImageFix" result="effect1_dropShadow_166_10880"/>
<feBlend mode="normal" in="SourceGraphic" in2="effect1_dropShadow_166_10880" result="shape"/>
</filter>
</defs>
</svg>
