<svg width="278" height="364" viewBox="0 0 278 364" fill="none" xmlns="http://www.w3.org/2000/svg">
<g filter="url(#filter0_d_166_10881)">
<rect x="34" y="29" width="210" height="296" rx="20" fill="#F2F2F2"/>
<rect x="34.5" y="29.5" width="209" height="295" rx="19.5" stroke="#D2D2D2"/>
</g>
<path d="M65.5156 51.2617V108.254H54.2656V64.2305L40.75 68.5273V59.6602L64.3047 51.2617H65.5156ZM122.312 74.8164V84.6602C122.312 88.931 121.857 92.6159 120.945 95.7148C120.034 98.7878 118.719 101.314 117 103.293C115.307 105.246 113.289 106.691 110.945 107.629C108.602 108.566 105.997 109.035 103.133 109.035C100.841 109.035 98.7057 108.749 96.7266 108.176C94.7474 107.577 92.9635 106.652 91.375 105.402C89.8125 104.152 88.4583 102.577 87.3125 100.676C86.1927 98.7487 85.3333 96.457 84.7344 93.8008C84.1354 91.1445 83.8359 88.0977 83.8359 84.6602V74.8164C83.8359 70.5456 84.2917 66.8867 85.2031 63.8398C86.1406 60.7669 87.4557 58.2539 89.1484 56.3008C90.8672 54.3477 92.8984 52.9154 95.2422 52.0039C97.5859 51.0664 100.19 50.5977 103.055 50.5977C105.346 50.5977 107.469 50.8971 109.422 51.4961C111.401 52.069 113.185 52.9674 114.773 54.1914C116.362 55.4154 117.716 56.9909 118.836 58.918C119.956 60.819 120.815 63.0977 121.414 65.7539C122.013 68.3841 122.312 71.4049 122.312 74.8164ZM111.023 86.1445V73.293C111.023 71.2357 110.906 69.4388 110.672 67.9023C110.464 66.3659 110.138 65.0638 109.695 63.9961C109.253 62.9023 108.706 62.0169 108.055 61.3398C107.404 60.6628 106.661 60.168 105.828 59.8555C104.995 59.543 104.07 59.3867 103.055 59.3867C101.779 59.3867 100.646 59.6341 99.6562 60.1289C98.6927 60.6237 97.8724 61.418 97.1953 62.5117C96.5182 63.5794 95.9974 65.0117 95.6328 66.8086C95.2943 68.5794 95.125 70.7409 95.125 73.293V86.1445C95.125 88.2018 95.2292 90.0117 95.4375 91.5742C95.6719 93.1367 96.0104 94.4779 96.4531 95.5977C96.9219 96.6914 97.4687 97.5898 98.0937 98.293C98.7448 98.97 99.487 99.4648 100.32 99.7773C101.18 100.09 102.117 100.246 103.133 100.246C104.383 100.246 105.49 99.9987 106.453 99.5039C107.443 98.9831 108.276 98.1758 108.953 97.082C109.656 95.9622 110.177 94.5039 110.516 92.707C110.854 90.9102 111.023 88.7227 111.023 86.1445Z" fill="#F24822"/>
<path fill-rule="evenodd" clip-rule="evenodd" d="M67.2307 185.628L96.5044 215.831L125.778 185.628L96.5044 155.425L67.2307 185.628Z" fill="#F24822"/>
<defs>
<filter id="filter0_d_166_10881" x="0" y="0" width="278" height="364" filterUnits="userSpaceOnUse" color-interpolation-filters="sRGB">
<feFlood flood-opacity="0" result="BackgroundImageFix"/>
<feColorMatrix in="SourceAlpha" type="matrix" values="0 0 0 0 0 0 0 0 0 0 0 0 0 0 0 0 0 0 127 0" result="hardAlpha"/>
<feOffset dy="5"/>
<feGaussianBlur stdDeviation="17"/>
<feColorMatrix type="matrix" values="0 0 0 0 0 0 0 0 0 0 0 0 0 0 0 0 0 0 0.1 0"/>
<feBlend mode="normal" in2="BackgroundImageFix" result="effect1_dropShadow_166_10881"/>
<feBlend mode="normal" in="SourceGraphic" in2="effect1_dropShadow_166_10881" result="shape"/>
</filter>
</defs>
</svg>
