<svg width="278" height="364" viewBox="0 0 278 364" fill="none" xmlns="http://www.w3.org/2000/svg">
<g filter="url(#filter0_d_166_10873)">
<rect x="34" y="29" width="210" height="296" rx="20" fill="#F2F2F2"/>
<rect x="34.5" y="29.5" width="209" height="295" rx="19.5" stroke="#D2D2D2"/>
</g>
<path d="M99.9687 99.4648V108.254H61.0625V100.754L79.4609 81.0273C81.3099 78.97 82.7682 77.1602 83.8359 75.5977C84.9036 74.0091 85.6719 72.5898 86.1406 71.3398C86.6354 70.0638 86.8828 68.8529 86.8828 67.707C86.8828 65.9883 86.5963 64.5169 86.0234 63.293C85.4505 62.043 84.6042 61.0794 83.4844 60.4023C82.3906 59.7253 81.0365 59.3867 79.4219 59.3867C77.7031 59.3867 76.2187 59.8034 74.9687 60.6367C73.7448 61.4701 72.8073 62.6289 72.1562 64.1133C71.5312 65.5977 71.2187 67.2773 71.2187 69.1523H59.9297C59.9297 65.7669 60.737 62.668 62.3516 59.8555C63.9661 57.0169 66.2448 54.7643 69.1875 53.0977C72.1302 51.4049 75.6198 50.5586 79.6562 50.5586C83.6406 50.5586 87 51.2096 89.7344 52.5117C92.4948 53.7878 94.5781 55.6367 95.9844 58.0586C97.4167 60.4544 98.1328 63.319 98.1328 66.6523C98.1328 68.5273 97.8333 70.3633 97.2344 72.1602C96.6354 73.931 95.776 75.7018 94.6562 77.4727C93.5625 79.2174 92.2344 80.9883 90.6719 82.7852C89.1094 84.582 87.3776 86.444 85.4766 88.3711L75.5937 99.4648H99.9687Z" fill="#F24822"/>
<path fill-rule="evenodd" clip-rule="evenodd" d="M67.2307 185.628L96.5044 215.831L125.778 185.628L96.5044 155.425L67.2307 185.628Z" fill="#F24822"/>
<defs>
<filter id="filter0_d_166_10873" x="0" y="0" width="278" height="364" filterUnits="userSpaceOnUse" color-interpolation-filters="sRGB">
<feFlood flood-opacity="0" result="BackgroundImageFix"/>
<feColorMatrix in="SourceAlpha" type="matrix" values="0 0 0 0 0 0 0 0 0 0 0 0 0 0 0 0 0 0 127 0" result="hardAlpha"/>
<feOffset dy="5"/>
<feGaussianBlur stdDeviation="17"/>
<feColorMatrix type="matrix" values="0 0 0 0 0 0 0 0 0 0 0 0 0 0 0 0 0 0 0.1 0"/>
<feBlend mode="normal" in2="BackgroundImageFix" result="effect1_dropShadow_166_10873"/>
<feBlend mode="normal" in="SourceGraphic" in2="effect1_dropShadow_166_10873" result="shape"/>
</filter>
</defs>
</svg>
