<svg width="278" height="364" viewBox="0 0 278 364" fill="none" xmlns="http://www.w3.org/2000/svg">
<g filter="url(#filter0_d_166_10877)">
<rect x="34" y="29" width="210" height="296" rx="20" fill="#F2F2F2"/>
<rect x="34.5" y="29.5" width="209" height="295" rx="19.5" stroke="#D2D2D2"/>
</g>
<path d="M90.0859 50.793H91.7266V59.7773H91.0625C88.0937 59.7773 85.4505 60.2201 83.1328 61.1055C80.8151 61.9909 78.849 63.2539 77.2344 64.8945C75.6458 66.5091 74.4219 68.4622 73.5625 70.7539C72.7292 73.0456 72.3125 75.6107 72.3125 78.4492V87.9023C72.3125 89.9336 72.5078 91.7305 72.8984 93.293C73.3151 94.8294 73.901 96.1185 74.6562 97.1602C75.4375 98.1758 76.349 98.944 77.3906 99.4648C78.4323 99.9596 79.6042 100.207 80.9062 100.207C82.1302 100.207 83.237 99.9466 84.2266 99.4258C85.2422 98.9049 86.1016 98.1758 86.8047 97.2383C87.5338 96.2747 88.0807 95.1549 88.4453 93.8789C88.8359 92.5768 89.0312 91.1575 89.0312 89.6211C89.0312 88.0846 88.8359 86.6654 88.4453 85.3633C88.0807 84.0612 87.5338 82.9414 86.8047 82.0039C86.0755 81.0404 85.1901 80.2982 84.1484 79.7773C83.1068 79.2565 81.9349 78.9961 80.6328 78.9961C78.862 78.9961 77.2995 79.4128 75.9453 80.2461C74.6172 81.0534 73.5755 82.095 72.8203 83.3711C72.0651 84.6471 71.6615 85.9883 71.6094 87.3945L68.2109 85.207C68.2891 83.2018 68.7057 81.3008 69.4609 79.5039C70.2422 77.707 71.3099 76.1185 72.6641 74.7383C74.0443 73.332 75.6979 72.2383 77.625 71.457C79.5521 70.6497 81.7266 70.2461 84.1484 70.2461C86.8047 70.2461 89.1354 70.7539 91.1406 71.7695C93.1719 72.7852 94.8646 74.1784 96.2187 75.9492C97.5729 77.72 98.5885 79.7643 99.2656 82.082C99.9427 84.3997 100.281 86.8737 100.281 89.5039C100.281 92.2643 99.8255 94.8294 98.9141 97.1992C98.0286 99.569 96.7396 101.639 95.0469 103.41C93.3802 105.181 91.375 106.561 89.0312 107.551C86.6875 108.54 84.0573 109.035 81.1406 109.035C78.1198 109.035 75.3724 108.488 72.8984 107.395C70.4505 106.275 68.3411 104.712 66.5703 102.707C64.7995 100.702 63.4323 98.319 62.4687 95.5586C61.5312 92.7982 61.0625 89.7773 61.0625 86.4961V82.1211C61.0625 77.5378 61.7266 73.345 63.0547 69.543C64.4088 65.7148 66.349 62.4076 68.875 59.6211C71.401 56.8086 74.4479 54.6341 78.0156 53.0977C81.5833 51.5612 85.6068 50.793 90.0859 50.793Z" fill="#F24822"/>
<path fill-rule="evenodd" clip-rule="evenodd" d="M67.2307 185.628L96.5044 215.831L125.778 185.628L96.5044 155.425L67.2307 185.628Z" fill="#F24822"/>
<defs>
<filter id="filter0_d_166_10877" x="0" y="0" width="278" height="364" filterUnits="userSpaceOnUse" color-interpolation-filters="sRGB">
<feFlood flood-opacity="0" result="BackgroundImageFix"/>
<feColorMatrix in="SourceAlpha" type="matrix" values="0 0 0 0 0 0 0 0 0 0 0 0 0 0 0 0 0 0 127 0" result="hardAlpha"/>
<feOffset dy="5"/>
<feGaussianBlur stdDeviation="17"/>
<feColorMatrix type="matrix" values="0 0 0 0 0 0 0 0 0 0 0 0 0 0 0 0 0 0 0.1 0"/>
<feBlend mode="normal" in2="BackgroundImageFix" result="effect1_dropShadow_166_10877"/>
<feBlend mode="normal" in="SourceGraphic" in2="effect1_dropShadow_166_10877" result="shape"/>
</filter>
</defs>
</svg>
