<svg width="278" height="364" viewBox="0 0 278 364" fill="none" xmlns="http://www.w3.org/2000/svg">
<g filter="url(#filter0_d_166_10876)">
<rect x="34" y="29" width="210" height="296" rx="20" fill="#F2F2F2"/>
<rect x="34.5" y="29.5" width="209" height="295" rx="19.5" stroke="#D2D2D2"/>
</g>
<path d="M71.6484 82.3555L62.6641 80.207L65.9062 51.3789H97.8594V60.4805H75.1641L73.7578 73.0977C74.513 72.6549 75.6588 72.1862 77.1953 71.6914C78.7318 71.1706 80.4505 70.9102 82.3516 70.9102C85.112 70.9102 87.5599 71.3398 89.6953 72.1992C91.8307 73.0586 93.6406 74.3086 95.125 75.9492C96.6354 77.5898 97.7812 79.595 98.5625 81.9648C99.3437 84.3346 99.7344 87.0169 99.7344 90.0117C99.7344 92.5378 99.3437 94.9466 98.5625 97.2383C97.7812 99.5039 96.5963 101.535 95.0078 103.332C93.4193 105.103 91.4271 106.496 89.0312 107.512C86.6354 108.527 83.7969 109.035 80.5156 109.035C78.0677 109.035 75.6979 108.671 73.4062 107.941C71.1406 107.212 69.0963 106.132 67.2734 104.699C65.4766 103.267 64.0312 101.535 62.9375 99.5039C61.8698 97.4466 61.3099 95.1029 61.2578 92.4727H72.4297C72.5859 94.0872 73.0026 95.4805 73.6797 96.6523C74.3828 97.7982 75.3073 98.6836 76.4531 99.3086C77.599 99.9336 78.9401 100.246 80.4766 100.246C81.9088 100.246 83.1328 99.9727 84.1484 99.4258C85.1641 98.8789 85.9844 98.1237 86.6094 97.1602C87.2344 96.1706 87.6901 95.0247 87.9766 93.7227C88.2891 92.3945 88.4453 90.9622 88.4453 89.4258C88.4453 87.8893 88.263 86.4961 87.8984 85.2461C87.5338 83.9961 86.974 82.9154 86.2187 82.0039C85.4635 81.0924 84.5 80.3893 83.3281 79.8945C82.1823 79.3997 80.8411 79.1523 79.3047 79.1523C77.2213 79.1523 75.6068 79.4779 74.4609 80.1289C73.3411 80.7799 72.4036 81.5221 71.6484 82.3555Z" fill="#F24822"/>
<path fill-rule="evenodd" clip-rule="evenodd" d="M67.2307 185.628L96.5044 215.831L125.778 185.628L96.5044 155.425L67.2307 185.628Z" fill="#F24822"/>
<defs>
<filter id="filter0_d_166_10876" x="0" y="0" width="278" height="364" filterUnits="userSpaceOnUse" color-interpolation-filters="sRGB">
<feFlood flood-opacity="0" result="BackgroundImageFix"/>
<feColorMatrix in="SourceAlpha" type="matrix" values="0 0 0 0 0 0 0 0 0 0 0 0 0 0 0 0 0 0 127 0" result="hardAlpha"/>
<feOffset dy="5"/>
<feGaussianBlur stdDeviation="17"/>
<feColorMatrix type="matrix" values="0 0 0 0 0 0 0 0 0 0 0 0 0 0 0 0 0 0 0.1 0"/>
<feBlend mode="normal" in2="BackgroundImageFix" result="effect1_dropShadow_166_10876"/>
<feBlend mode="normal" in="SourceGraphic" in2="effect1_dropShadow_166_10876" result="shape"/>
</filter>
</defs>
</svg>
