<svg width="280" height="366" viewBox="0 0 280 366" fill="none" xmlns="http://www.w3.org/2000/svg">
<g filter="url(#filter0_d_166_10859)">
<rect x="35.5952" y="29" width="210" height="296" rx="20" transform="rotate(0.308765 35.5952 29)" fill="#F2F2F2"/>
<rect x="36.0925" y="29.5027" width="209" height="295" rx="19.5" transform="rotate(0.308765 36.0925 29.5027)" stroke="#D2D2D2"/>
</g>
<path d="M70.245 99.8868L70.9871 99.8908C74.1121 99.9076 76.7964 99.5445 79.04 98.8013C81.3098 98.0323 83.1778 96.9226 84.644 95.4721C86.1101 94.0217 87.2005 92.2437 87.9149 90.1381C88.6296 88.0065 88.9942 85.5866 89.0088 82.8783L89.0669 72.0972C89.078 70.0399 88.8794 68.2289 88.4711 66.6642C88.0889 65.0996 87.523 63.8075 86.7732 62.7878C86.0497 61.7422 85.1946 60.9563 84.2078 60.4302C83.2471 59.9042 82.1808 59.638 81.0089 59.6317C79.7589 59.6249 78.6505 59.9315 77.6836 60.5513C76.7169 61.145 75.8921 61.9609 75.2094 62.9989C74.5528 64.0371 74.0385 65.2322 73.6667 66.5844C73.321 67.9107 73.1442 69.303 73.1363 70.7613C73.1285 72.2196 73.2902 73.6137 73.6216 74.9437C73.9531 76.2475 74.4547 77.4091 75.1263 78.4284C75.798 79.4216 76.6401 80.2204 77.6525 80.8248C78.665 81.4032 79.8614 81.6961 81.2415 81.7036C82.5697 81.7107 83.7559 81.4697 84.8002 80.9806C85.8707 80.4655 86.7728 79.7932 87.5064 78.9639C88.2661 78.1346 88.844 77.2132 89.2401 76.1997C89.6622 75.1864 89.8761 74.1588 89.8817 73.1172L93.5816 75.1684C93.5718 76.9913 93.1715 78.786 92.3807 80.5526C91.5899 82.3192 90.4875 83.9279 89.0734 85.3786C87.6855 86.8035 86.0778 87.9407 84.2503 88.7902C82.4228 89.6397 80.4673 90.0589 78.384 90.0477C75.7278 90.0334 73.3737 89.5389 71.3216 88.5643C69.2697 87.5636 67.5322 86.2001 66.1092 84.4736C64.7124 82.7213 63.6556 80.6843 62.939 78.3627C62.2223 76.0411 61.8713 73.5262 61.8859 70.8179C61.9007 68.0575 62.3574 65.4688 63.2559 63.0517C64.1804 60.6348 65.4809 58.5063 67.1575 56.6664C68.8602 54.8266 70.8862 53.3921 73.2355 52.3631C75.611 51.3082 78.244 50.7885 81.1346 50.8041C84.0252 50.8197 86.6524 51.3937 89.0161 52.5263C91.3798 53.6588 93.4025 55.2583 95.0841 57.3247C96.7658 59.365 98.0547 61.8069 98.9509 64.6503C99.8731 67.4939 100.325 70.6474 100.306 74.1109L100.285 78.0171C100.265 81.7149 99.843 85.1502 99.0186 88.3229C98.2203 91.4957 97.0199 94.3669 95.4175 96.9364C93.8412 99.4801 91.8764 101.657 89.5228 103.467C87.1953 105.278 84.4925 106.656 81.4145 107.603C78.3364 108.55 74.8964 109.014 71.0943 108.993L70.1959 108.988L70.245 99.8868Z" fill="#F24822"/>
<path fill-rule="evenodd" clip-rule="evenodd" d="M109.229 160.401C98.5386 160.508 96.348 172.666 96.348 172.666C96.348 172.666 93.9468 160.483 83.2581 160.261C72.5691 160.039 65.9401 169.377 69.5052 179.264C73.07 189.151 76.6629 191.391 82.3049 198.575C87.9465 205.76 96.1439 218.18 96.0869 221.099C96.0617 218.179 104.05 205.847 109.769 198.723C115.488 191.6 119.105 189.399 122.776 179.551C126.448 169.703 119.92 160.294 109.229 160.401Z" fill="#F24822"/>
<defs>
<filter id="filter0_d_166_10859" x="0.107571" y="0.107422" width="279.377" height="364.912" filterUnits="userSpaceOnUse" color-interpolation-filters="sRGB">
<feFlood flood-opacity="0" result="BackgroundImageFix"/>
<feColorMatrix in="SourceAlpha" type="matrix" values="0 0 0 0 0 0 0 0 0 0 0 0 0 0 0 0 0 0 127 0" result="hardAlpha"/>
<feOffset dy="5"/>
<feGaussianBlur stdDeviation="17"/>
<feColorMatrix type="matrix" values="0 0 0 0 0 0 0 0 0 0 0 0 0 0 0 0 0 0 0.1 0"/>
<feBlend mode="normal" in2="BackgroundImageFix" result="effect1_dropShadow_166_10859"/>
<feBlend mode="normal" in="SourceGraphic" in2="effect1_dropShadow_166_10859" result="shape"/>
</filter>
</defs>
</svg>
