<svg width="280" height="366" viewBox="0 0 280 366" fill="none" xmlns="http://www.w3.org/2000/svg">
<g filter="url(#filter0_d_166_10838)">
<rect x="35.5951" y="29" width="210" height="296" rx="20" transform="rotate(0.308765 35.5951 29)" fill="#F2F2F2"/>
<rect x="36.0924" y="29.5027" width="209" height="295" rx="19.5" transform="rotate(0.308765 36.0924 29.5027)" stroke="#D2D2D2"/>
</g>
<path d="M101.183 99.8191L101.136 108.608L62.2302 108.398L62.2706 100.898L80.7751 81.2714C82.6351 79.2241 84.1031 77.4221 85.1793 75.8653C86.2555 74.2826 87.0314 72.8675 87.5069 71.62C88.0085 70.3466 88.2624 69.1371 88.2686 67.9912C88.2779 66.2725 87.9993 64.7996 87.433 63.5726C86.8669 62.3195 86.0257 61.3515 84.9096 60.6683C83.8195 59.9854 82.4672 59.6395 80.8526 59.6308C79.1339 59.6216 77.6473 60.0302 76.3928 60.8568C75.1644 61.6836 74.2207 62.8373 73.5616 64.3182C72.9286 65.7992 72.6071 67.4771 72.597 69.3521L61.3081 69.2913C61.3263 65.9059 62.1503 62.8114 63.78 60.0076C65.4099 57.1778 67.7006 54.9375 70.6523 53.2867C73.6041 51.6099 77.0982 50.7824 81.1346 50.8041C85.1189 50.8256 88.4747 51.4947 91.202 52.8115C93.9555 54.1024 96.0289 55.9626 97.422 58.392C98.8414 60.7955 99.5421 63.6639 99.5241 66.9972C99.514 68.8722 99.2047 70.7065 98.596 72.5001C97.9875 74.2677 97.1186 76.0338 95.9893 77.7986C94.8862 79.5375 93.5485 81.3011 91.9764 83.0896C90.4042 84.878 88.6624 86.7306 86.751 88.6474L76.8086 99.6878L101.183 99.8191Z" fill="#F24822"/>
<path fill-rule="evenodd" clip-rule="evenodd" d="M109.229 160.401C98.5385 160.508 96.3478 172.666 96.3478 172.666C96.3478 172.666 93.9466 160.483 83.2579 160.261C72.5689 160.039 65.94 169.377 69.505 179.264C73.0698 189.151 76.6628 191.391 82.3047 198.575C87.9464 205.76 96.1437 218.18 96.0868 221.099C96.0616 218.179 104.05 205.847 109.769 198.723C115.488 191.6 119.105 189.399 122.776 179.551C126.447 169.703 119.92 160.294 109.229 160.401Z" fill="#F24822"/>
<defs>
<filter id="filter0_d_166_10838" x="0.107422" y="0.107422" width="279.377" height="364.912" filterUnits="userSpaceOnUse" color-interpolation-filters="sRGB">
<feFlood flood-opacity="0" result="BackgroundImageFix"/>
<feColorMatrix in="SourceAlpha" type="matrix" values="0 0 0 0 0 0 0 0 0 0 0 0 0 0 0 0 0 0 127 0" result="hardAlpha"/>
<feOffset dy="5"/>
<feGaussianBlur stdDeviation="17"/>
<feColorMatrix type="matrix" values="0 0 0 0 0 0 0 0 0 0 0 0 0 0 0 0 0 0 0.1 0"/>
<feBlend mode="normal" in2="BackgroundImageFix" result="effect1_dropShadow_166_10838"/>
<feBlend mode="normal" in="SourceGraphic" in2="effect1_dropShadow_166_10838" result="shape"/>
</filter>
</defs>
</svg>
