<svg width="280" height="366" viewBox="0 0 280 366" fill="none" xmlns="http://www.w3.org/2000/svg">
<g filter="url(#filter0_d_166_10850)">
<rect x="35.5951" y="29" width="210" height="296" rx="20" transform="rotate(0.308765 35.5951 29)" fill="#F2F2F2"/>
<rect x="36.0924" y="29.5027" width="209" height="295" rx="19.5" transform="rotate(0.308765 36.0924 29.5027)" stroke="#D2D2D2"/>
</g>
<path d="M91.5628 51.0947L93.2034 51.1035L93.155 60.0878L92.4909 60.0842C89.5222 60.0682 86.8766 60.4967 84.5542 61.3696C82.2317 62.2425 80.2588 63.4949 78.6354 65.1268C77.0382 66.7328 75.8037 68.6793 74.932 70.9663C74.0863 73.2534 73.6559 75.8163 73.6406 78.6548L73.5896 88.1077C73.5787 90.139 73.7643 91.9369 74.1465 93.5014C74.5549 95.0401 75.1339 96.3323 75.8834 97.3781C76.6592 98.3979 77.5665 99.171 78.6054 99.6974C79.6443 100.198 80.8149 100.452 82.1169 100.459C83.3409 100.465 84.449 100.211 85.4414 99.6952C86.4598 99.1799 87.3231 98.4553 88.0313 97.5216C88.7656 96.562 89.3185 95.4452 89.69 94.1712C90.0876 92.8712 90.2906 91.453 90.2989 89.9166C90.3071 88.3801 90.1195 86.9598 89.7359 85.6557C89.3783 84.3516 88.8375 83.2289 88.1134 82.2875C87.3894 81.32 86.508 80.5731 85.4692 80.0466C84.4303 79.5202 83.2599 79.2535 81.9578 79.2465C80.187 79.2369 78.6223 79.6452 77.2636 80.4712C75.9312 81.2713 74.8839 82.3073 74.1218 83.5793C73.3598 84.8512 72.9489 86.1902 72.8892 87.5961L69.5026 85.3904C69.5916 83.3856 70.0185 81.4868 70.7834 79.6941C71.5743 77.9014 72.6505 76.3187 74.0121 74.9458C75.3999 73.547 77.0594 72.4622 78.9907 71.6913C80.9221 70.8944 83.0987 70.5025 85.5205 70.5155C88.1767 70.5298 90.5047 71.0502 92.5044 72.0766C94.5302 73.1032 96.2153 74.5055 97.5599 76.2836C98.9045 78.0617 99.9091 80.1114 100.574 82.4328C101.238 84.7541 101.564 87.2298 101.549 89.86C101.534 92.6204 101.065 95.183 100.141 97.5478C99.2425 99.9128 97.9423 101.976 96.2401 103.738C94.5639 105.5 92.5513 106.869 90.2022 107.846C87.8532 108.823 85.2204 109.304 82.3037 109.288C79.2829 109.272 76.5385 108.71 74.0705 107.603C71.6287 106.47 69.5277 104.896 67.7677 102.881C66.0077 100.867 64.6534 98.4764 63.7047 95.7108C62.7821 92.9454 62.3297 89.9221 62.3474 86.6409L62.3709 82.266C62.3956 77.6827 63.0823 73.4936 64.4309 69.6987C65.8056 65.878 67.7635 62.5812 70.3046 59.8084C72.8457 57.0095 75.9043 54.8515 79.4802 53.3343C83.0562 51.8171 87.0837 51.0705 91.5628 51.0947Z" fill="#F24822"/>
<path fill-rule="evenodd" clip-rule="evenodd" d="M109.229 160.401C98.5385 160.508 96.3478 172.666 96.3478 172.666C96.3478 172.666 93.9466 160.483 83.2579 160.261C72.5689 160.039 65.94 169.377 69.505 179.264C73.0698 189.151 76.6628 191.391 82.3047 198.575C87.9464 205.76 96.1437 218.18 96.0868 221.099C96.0616 218.179 104.05 205.847 109.769 198.723C115.488 191.6 119.105 189.399 122.776 179.551C126.447 169.703 119.92 160.294 109.229 160.401Z" fill="#F24822"/>
<defs>
<filter id="filter0_d_166_10850" x="0.107422" y="0.107422" width="279.377" height="364.912" filterUnits="userSpaceOnUse" color-interpolation-filters="sRGB">
<feFlood flood-opacity="0" result="BackgroundImageFix"/>
<feColorMatrix in="SourceAlpha" type="matrix" values="0 0 0 0 0 0 0 0 0 0 0 0 0 0 0 0 0 0 127 0" result="hardAlpha"/>
<feOffset dy="5"/>
<feGaussianBlur stdDeviation="17"/>
<feColorMatrix type="matrix" values="0 0 0 0 0 0 0 0 0 0 0 0 0 0 0 0 0 0 0.1 0"/>
<feBlend mode="normal" in2="BackgroundImageFix" result="effect1_dropShadow_166_10850"/>
<feBlend mode="normal" in="SourceGraphic" in2="effect1_dropShadow_166_10850" result="shape"/>
</filter>
</defs>
</svg>
