<svg width="280" height="366" viewBox="0 0 280 366" fill="none" xmlns="http://www.w3.org/2000/svg">
<g filter="url(#filter0_d_166_10862)">
<rect x="35.5952" y="29" width="210" height="296" rx="20" transform="rotate(0.308765 35.5952 29)" fill="#F2F2F2"/>
<rect x="36.0925" y="29.5027" width="209" height="295" rx="19.5" transform="rotate(0.308765 36.0925 29.5027)" stroke="#D2D2D2"/>
</g>
<path d="M66.9904 51.431L66.6833 108.422L55.4334 108.362L55.6707 64.339L42.1321 68.5629L42.1799 59.6959L65.7795 51.4245L66.9904 51.431ZM123.66 75.2914L123.606 85.135C123.583 89.4058 123.108 93.0882 122.18 96.1822C121.252 99.2502 119.923 101.769 118.194 103.739C116.49 105.683 114.464 107.117 112.116 108.042C109.767 108.967 107.16 109.422 104.296 109.406C102.004 109.394 99.8702 109.096 97.8942 108.512C95.9183 107.903 94.1394 106.969 92.5577 105.71C91.0019 104.452 89.6563 102.869 88.5207 100.962C87.4113 99.0287 86.5643 96.7325 85.9796 94.073C85.395 91.4136 85.112 88.3652 85.1305 84.9277L85.1835 75.0841C85.2065 70.8133 85.682 67.157 86.6098 64.1151C87.5639 61.0472 88.8925 58.5413 90.5957 56.5974C92.325 54.6535 94.3639 53.2322 96.7125 52.3334C99.0613 51.4085 101.668 50.9538 104.533 50.9693C106.824 50.9816 108.945 51.2925 110.895 51.902C112.871 52.4856 114.65 53.3936 116.232 54.6261C117.814 55.8586 119.159 57.4414 120.269 59.3745C121.378 61.2815 122.225 63.5648 122.81 66.2242C123.395 68.8576 123.678 71.88 123.66 75.2914ZM112.31 86.5586L112.379 73.7072C112.39 71.6499 112.282 69.8524 112.056 68.3147C111.856 66.7772 111.538 65.4734 111.101 64.4033C110.664 63.3072 110.122 62.4188 109.475 61.7382C108.827 61.0577 108.088 60.5589 107.256 60.2419C106.424 59.9249 105.501 59.7637 104.485 59.7582C103.209 59.7513 102.075 59.9926 101.083 60.4821C100.117 60.9717 99.292 61.7615 98.609 62.8516C97.9262 63.9156 97.3976 65.3451 97.0234 67.14C96.6753 68.909 96.4944 71.0695 96.4806 73.6215L96.4114 86.4729C96.4003 88.5302 96.4947 90.3406 96.6946 91.9042C96.9206 93.4679 97.2519 94.8109 97.6885 95.933C98.1514 97.0293 98.6934 97.9307 99.3146 98.6372C99.962 99.3177 100.702 99.8165 101.533 100.134C102.391 100.451 103.327 100.612 104.343 100.617C105.593 100.624 106.701 100.383 107.667 99.8931C108.66 99.3776 109.497 98.5748 110.18 97.4848C110.89 96.3688 111.418 94.9133 111.766 93.1182C112.115 91.3232 112.296 89.1367 112.31 86.5586Z" fill="#F24822"/>
<path fill-rule="evenodd" clip-rule="evenodd" d="M109.229 160.401C98.5386 160.508 96.348 172.666 96.348 172.666C96.348 172.666 93.9468 160.483 83.2581 160.261C72.5691 160.039 65.9401 169.377 69.5052 179.264C73.07 189.151 76.663 191.391 82.3049 198.575C87.9465 205.76 96.1439 218.18 96.087 221.099C96.0617 218.179 104.05 205.847 109.769 198.723C115.488 191.6 119.105 189.399 122.776 179.551C126.448 169.703 119.92 160.294 109.229 160.401Z" fill="#F24822"/>
<defs>
<filter id="filter0_d_166_10862" x="0.107574" y="0.107422" width="279.377" height="364.912" filterUnits="userSpaceOnUse" color-interpolation-filters="sRGB">
<feFlood flood-opacity="0" result="BackgroundImageFix"/>
<feColorMatrix in="SourceAlpha" type="matrix" values="0 0 0 0 0 0 0 0 0 0 0 0 0 0 0 0 0 0 127 0" result="hardAlpha"/>
<feOffset dy="5"/>
<feGaussianBlur stdDeviation="17"/>
<feColorMatrix type="matrix" values="0 0 0 0 0 0 0 0 0 0 0 0 0 0 0 0 0 0 0.1 0"/>
<feBlend mode="normal" in2="BackgroundImageFix" result="effect1_dropShadow_166_10862"/>
<feBlend mode="normal" in="SourceGraphic" in2="effect1_dropShadow_166_10862" result="shape"/>
</filter>
</defs>
</svg>
