<svg width="280" height="366" viewBox="0 0 280 366" fill="none" xmlns="http://www.w3.org/2000/svg">
<g filter="url(#filter0_d_166_10853)">
<rect x="35.5951" y="29" width="210" height="296" rx="20" transform="rotate(0.308765 35.5951 29)" fill="#F2F2F2"/>
<rect x="36.0924" y="29.5027" width="209" height="295" rx="19.5" transform="rotate(0.308765 36.0924 29.5027)" stroke="#D2D2D2"/>
</g>
<path d="M101.169 51.7324L101.136 57.787L78.8705 108.488L66.9957 108.424L89.2467 60.4573L60.9268 60.3047L60.9741 51.5158L101.169 51.7324Z" fill="#F24822"/>
<path fill-rule="evenodd" clip-rule="evenodd" d="M109.229 160.401C98.5385 160.508 96.3478 172.666 96.3478 172.666C96.3478 172.666 93.9467 160.483 83.2579 160.261C72.569 160.039 65.94 169.377 69.5051 179.264C73.0699 189.151 76.6628 191.391 82.3047 198.575C87.9464 205.76 96.1438 218.18 96.0868 221.099C96.0616 218.179 104.05 205.847 109.769 198.723C115.488 191.6 119.105 189.399 122.776 179.551C126.447 169.703 119.92 160.294 109.229 160.401Z" fill="#F24822"/>
<defs>
<filter id="filter0_d_166_10853" x="0.107422" y="0.107422" width="279.377" height="364.912" filterUnits="userSpaceOnUse" color-interpolation-filters="sRGB">
<feFlood flood-opacity="0" result="BackgroundImageFix"/>
<feColorMatrix in="SourceAlpha" type="matrix" values="0 0 0 0 0 0 0 0 0 0 0 0 0 0 0 0 0 0 127 0" result="hardAlpha"/>
<feOffset dy="5"/>
<feGaussianBlur stdDeviation="17"/>
<feColorMatrix type="matrix" values="0 0 0 0 0 0 0 0 0 0 0 0 0 0 0 0 0 0 0.1 0"/>
<feBlend mode="normal" in2="BackgroundImageFix" result="effect1_dropShadow_166_10853"/>
<feBlend mode="normal" in="SourceGraphic" in2="effect1_dropShadow_166_10853" result="shape"/>
</filter>
</defs>
</svg>
