<svg width="280" height="366" viewBox="0 0 280 366" fill="none" xmlns="http://www.w3.org/2000/svg">
<g filter="url(#filter0_d_166_10841)">
<rect x="35.5952" y="29" width="210" height="296" rx="20" transform="rotate(0.308765 35.5952 29)" fill="#F2F2F2"/>
<rect x="36.0925" y="29.5027" width="209" height="295" rx="19.5" transform="rotate(0.308765 36.0925 29.5027)" stroke="#D2D2D2"/>
</g>
<path d="M73.9331 75.1407L79.9487 75.1731C81.8757 75.1835 83.466 74.8665 84.7195 74.2222C85.9731 73.5519 86.9026 72.6194 87.508 71.4247C88.1396 70.2041 88.4598 68.7866 88.4685 67.172C88.4763 65.7137 88.1968 64.4231 87.6299 63.3002C87.0892 62.1515 86.2477 61.2615 85.1052 60.6303C83.9629 59.9731 82.5194 59.6398 80.7746 59.6304C79.3944 59.623 78.1169 59.8895 76.9421 60.4301C75.7673 60.9706 74.8257 61.7338 74.1172 62.7196C73.4088 63.7054 73.0508 64.9014 73.0432 66.3076L61.7543 66.2468C61.7711 63.1218 62.6191 60.405 64.2983 58.0963C66.0034 55.7877 68.2788 53.9901 71.1243 52.7033C73.9698 51.4165 77.0983 50.7824 80.5097 50.8007C84.3638 50.8215 87.7328 51.4647 90.6166 52.7302C93.5006 53.9698 95.7434 55.7918 97.3451 58.1963C98.9467 60.6008 99.738 63.5738 99.7189 67.1154C99.7092 68.9123 99.2832 70.6548 98.4407 72.343C97.5984 74.0051 96.3924 75.5091 94.8226 76.8548C93.279 78.1746 91.3983 79.2322 89.1804 80.0276C86.9627 80.7969 84.4737 81.1741 81.7133 81.1592L73.9009 81.1171L73.9331 75.1407ZM73.887 83.6952L73.9184 77.875L81.7308 77.9171C84.8297 77.9338 87.5491 78.3 89.889 79.0158C92.229 79.7315 94.1896 80.7577 95.771 82.0944C97.3525 83.405 98.542 84.9609 99.3396 86.7621C100.137 88.5373 100.53 90.5056 100.519 92.667C100.504 95.3232 99.9839 97.6902 98.957 99.7681C97.9303 101.82 96.4886 103.557 94.632 104.979C92.8014 106.402 90.6601 107.484 88.2082 108.226C85.7563 108.942 83.0851 109.292 80.1946 109.276C77.7988 109.264 75.4438 108.925 73.1296 108.262C70.8416 107.572 68.7637 106.559 66.8959 105.22C65.0543 103.856 63.5791 102.156 62.4702 100.118C61.3876 98.0552 60.8538 95.6173 60.869 92.8049L72.1579 92.8657C72.15 94.324 72.5076 95.6281 73.2306 96.7778C73.9535 97.9276 74.9513 98.8314 76.2238 99.4893C77.5224 100.147 78.9659 100.481 80.5544 100.489C82.3513 100.499 83.8895 100.182 85.169 99.5375C86.4747 98.8674 87.4693 97.9353 88.1529 96.741C88.8626 95.5209 89.2218 94.1035 89.2305 92.489C89.2417 90.4057 88.8731 88.737 88.1246 87.4829C87.3763 86.2028 86.3006 85.2595 84.8976 84.653C83.4946 84.0465 81.8296 83.738 79.9026 83.7276L73.887 83.6952Z" fill="#F24822"/>
<path fill-rule="evenodd" clip-rule="evenodd" d="M109.229 160.401C98.5386 160.508 96.3479 172.666 96.3479 172.666C96.3479 172.666 93.9468 160.483 83.258 160.261C72.5691 160.039 65.9401 169.377 69.5052 179.264C73.07 189.151 76.6629 191.391 82.3048 198.575C87.9465 205.76 96.1439 218.18 96.0869 221.099C96.0617 218.179 104.05 205.847 109.769 198.723C115.488 191.6 119.105 189.399 122.776 179.551C126.448 169.703 119.92 160.294 109.229 160.401Z" fill="#F24822"/>
<defs>
<filter id="filter0_d_166_10841" x="0.107544" y="0.107422" width="279.377" height="364.912" filterUnits="userSpaceOnUse" color-interpolation-filters="sRGB">
<feFlood flood-opacity="0" result="BackgroundImageFix"/>
<feColorMatrix in="SourceAlpha" type="matrix" values="0 0 0 0 0 0 0 0 0 0 0 0 0 0 0 0 0 0 127 0" result="hardAlpha"/>
<feOffset dy="5"/>
<feGaussianBlur stdDeviation="17"/>
<feColorMatrix type="matrix" values="0 0 0 0 0 0 0 0 0 0 0 0 0 0 0 0 0 0 0.1 0"/>
<feBlend mode="normal" in2="BackgroundImageFix" result="effect1_dropShadow_166_10841"/>
<feBlend mode="normal" in="SourceGraphic" in2="effect1_dropShadow_166_10841" result="shape"/>
</filter>
</defs>
</svg>
