<svg width="280" height="366" viewBox="0 0 280 366" fill="none" xmlns="http://www.w3.org/2000/svg">
<g filter="url(#filter0_d_166_10868)">
<rect x="35.5952" y="29" width="210" height="296" rx="20" transform="rotate(0.308765 35.5952 29)" fill="#F2F2F2"/>
<rect x="36.0925" y="29.5027" width="209" height="295" rx="19.5" transform="rotate(0.308765 36.0925 29.5027)" stroke="#D2D2D2"/>
</g>
<path d="M89.7362 100.109L105.061 112.379L97.6437 118.746L82.5534 106.477L89.7362 100.109ZM105.632 78.8662L105.618 81.5615C105.594 85.8843 104.988 89.7613 103.797 93.1925C102.633 96.6238 100.963 99.5445 98.7889 101.955C96.6146 104.339 94.0526 106.161 91.1031 107.421C88.1536 108.681 84.8819 109.302 81.2882 109.282C77.7206 109.263 74.4558 108.608 71.494 107.315C68.5322 106.023 65.977 104.174 63.8285 101.766C61.6801 99.3328 60.0162 96.3941 58.8369 92.9502C57.6835 89.5064 57.1185 85.6231 57.1418 81.3003L57.1563 78.605C57.1798 74.2561 57.7866 70.3791 58.9768 66.974C60.1933 63.543 61.8757 60.6223 64.0241 58.212C66.1726 55.8017 68.7346 53.9665 71.7102 52.7065C74.6858 51.4464 77.9574 50.826 81.525 50.8453C85.1187 50.8646 88.3835 51.5203 91.3193 52.8121C94.2811 54.1042 96.8362 55.9669 98.9846 58.4004C101.133 60.8339 102.784 63.7725 103.937 67.2163C105.091 70.634 105.656 74.5173 105.632 78.8662ZM93.7819 81.4977L93.7968 78.7243C93.8131 75.7035 93.541 73.0458 92.9804 70.751C92.4459 68.4565 91.649 66.5251 90.5897 64.9568C89.5565 63.3887 88.2738 62.2099 86.7416 61.4204C85.2095 60.6049 83.4539 60.1917 81.4747 60.1811C79.4956 60.1704 77.7356 60.5646 76.1948 61.3636C74.6542 62.1365 73.3588 63.3014 72.3088 64.8583C71.2587 66.4152 70.454 68.338 69.8948 70.6266C69.3356 72.9153 69.0479 75.5701 69.0316 78.5909L69.0166 81.3643C69.0005 84.359 69.2596 87.0167 69.794 89.3373C70.3285 91.6319 71.1123 93.5762 72.1454 95.1704C73.2047 96.7386 74.5004 97.9305 76.0324 98.7461C77.5906 99.5618 79.3592 99.9749 81.3383 99.9856C83.3175 99.9963 85.0644 99.602 86.5792 98.8029C88.12 98.0039 89.4154 96.826 90.4655 95.2691C91.5417 93.6863 92.3594 91.7506 92.9187 89.4619C93.478 87.1472 93.7658 84.4925 93.7819 81.4977Z" fill="#F24822"/>
<path fill-rule="evenodd" clip-rule="evenodd" d="M109.229 160.401C98.5386 160.508 96.3479 172.666 96.3479 172.666C96.3479 172.666 93.9468 160.483 83.258 160.261C72.5691 160.039 65.9401 169.377 69.5052 179.264C73.07 189.151 76.6629 191.391 82.3048 198.575C87.9465 205.76 96.1439 218.18 96.0869 221.099C96.0617 218.179 104.05 205.847 109.769 198.723C115.488 191.6 119.105 189.399 122.776 179.551C126.448 169.703 119.92 160.294 109.229 160.401Z" fill="#F24822"/>
<defs>
<filter id="filter0_d_166_10868" x="0.107544" y="0.107422" width="279.377" height="364.912" filterUnits="userSpaceOnUse" color-interpolation-filters="sRGB">
<feFlood flood-opacity="0" result="BackgroundImageFix"/>
<feColorMatrix in="SourceAlpha" type="matrix" values="0 0 0 0 0 0 0 0 0 0 0 0 0 0 0 0 0 0 127 0" result="hardAlpha"/>
<feOffset dy="5"/>
<feGaussianBlur stdDeviation="17"/>
<feColorMatrix type="matrix" values="0 0 0 0 0 0 0 0 0 0 0 0 0 0 0 0 0 0 0.1 0"/>
<feBlend mode="normal" in2="BackgroundImageFix" result="effect1_dropShadow_166_10868"/>
<feBlend mode="normal" in="SourceGraphic" in2="effect1_dropShadow_166_10868" result="shape"/>
</filter>
</defs>
</svg>
