<svg width="280" height="366" viewBox="0 0 280 366" fill="none" xmlns="http://www.w3.org/2000/svg">
<g filter="url(#filter0_d_166_10856)">
<rect x="35.5952" y="29" width="210" height="296" rx="20" transform="rotate(0.308765 35.5952 29)" fill="#F2F2F2"/>
<rect x="36.0925" y="29.5027" width="209" height="295" rx="19.5" transform="rotate(0.308765 36.0925 29.5027)" stroke="#D2D2D2"/>
</g>
<path d="M100.634 93.0192C100.615 96.5868 99.7652 99.5901 98.0854 102.029C96.4057 104.442 94.1042 106.265 91.1808 107.5C88.2836 108.708 84.9991 109.302 81.3273 109.283C77.6555 109.263 74.3646 108.633 71.4545 107.393C68.5446 106.128 66.2499 104.279 64.5702 101.848C62.8908 99.3914 62.0606 96.3791 62.0798 92.8114C62.0928 90.4156 62.5862 88.2568 63.5601 86.3349C64.5341 84.387 65.8842 82.7276 67.6104 81.3567C69.3627 79.9598 71.4127 78.9032 73.7604 78.1866C76.1082 77.4441 78.6623 77.0802 81.4226 77.0951C85.1205 77.115 88.4242 77.7839 91.3338 79.1017C94.2434 80.4195 96.5252 82.2677 98.1791 84.6465C99.8329 87.0252 100.651 89.8161 100.634 93.0192ZM89.31 92.216C89.3194 90.4712 88.9889 88.972 88.3186 87.7184C87.6745 86.4388 86.7553 85.4573 85.561 84.7738C84.3668 84.0902 82.9754 83.7442 81.3868 83.7356C79.7983 83.7271 78.4033 84.0581 77.2017 84.7287C76.0002 85.3993 75.0574 86.3708 74.3735 87.6432C73.7157 88.8897 73.3821 90.3853 73.3727 92.1301C73.3635 93.8488 73.681 95.3349 74.3253 96.5884C74.9956 97.842 75.9279 98.8106 77.1222 99.4941C78.3426 100.152 79.7601 100.485 81.3747 100.494C82.9892 100.502 84.3842 100.184 85.5596 99.5396C86.7611 98.869 87.6777 97.9104 88.3095 96.6638C88.9672 95.4173 89.3008 93.9347 89.31 92.216ZM99.5643 66.8021C99.5487 69.6927 98.7667 72.2536 97.2182 74.4849C95.6698 76.6901 93.5251 78.4103 90.784 79.6456C88.069 80.881 84.9667 81.4893 81.4772 81.4705C77.9616 81.4515 74.84 80.8097 72.1124 79.545C69.3848 78.2803 67.2588 76.537 65.7343 74.3152C64.2099 72.0674 63.4555 69.4982 63.4711 66.6076C63.4896 63.1701 64.2734 60.2837 65.8225 57.9483C67.3977 55.5869 69.5428 53.8016 72.2577 52.5922C74.9986 51.383 78.1008 50.7878 81.5643 50.8064C85.0799 50.8254 88.1885 51.4541 90.8902 52.6926C93.618 53.9313 95.7437 55.7397 97.2673 58.1177C98.8172 60.4699 99.5828 63.3646 99.5643 66.8021ZM88.3117 67.2493C88.32 65.7128 88.0537 64.3833 87.5129 63.2605C86.9722 62.1118 86.1957 61.2222 85.1835 60.5917C84.1973 59.9614 82.975 59.6423 81.5167 59.6344C80.1105 59.6268 78.898 59.9198 77.8791 60.5133C76.8863 61.1069 76.1134 61.9751 75.5604 63.118C75.0335 64.235 74.7658 65.5877 74.7572 67.1762C74.749 68.7127 75.0021 70.0682 75.5166 71.2429C76.0573 72.3916 76.8337 73.2943 77.8458 73.9508C78.8579 74.6073 80.0801 74.9394 81.5123 74.9471C82.9446 74.9548 84.1573 74.6358 85.1504 73.9901C86.1695 73.3446 86.9425 72.4503 87.4695 71.3073C88.0227 70.1384 88.3034 68.7857 88.3117 67.2493Z" fill="#F24822"/>
<path fill-rule="evenodd" clip-rule="evenodd" d="M109.229 160.401C98.5386 160.508 96.348 172.666 96.348 172.666C96.348 172.666 93.9468 160.483 83.2581 160.261C72.5691 160.039 65.9401 169.377 69.5052 179.264C73.07 189.151 76.663 191.391 82.3049 198.575C87.9465 205.76 96.1439 218.18 96.087 221.099C96.0617 218.179 104.05 205.847 109.769 198.723C115.488 191.6 119.105 189.399 122.776 179.551C126.448 169.703 119.92 160.294 109.229 160.401Z" fill="#F24822"/>
<defs>
<filter id="filter0_d_166_10856" x="0.107574" y="0.107422" width="279.377" height="364.912" filterUnits="userSpaceOnUse" color-interpolation-filters="sRGB">
<feFlood flood-opacity="0" result="BackgroundImageFix"/>
<feColorMatrix in="SourceAlpha" type="matrix" values="0 0 0 0 0 0 0 0 0 0 0 0 0 0 0 0 0 0 127 0" result="hardAlpha"/>
<feOffset dy="5"/>
<feGaussianBlur stdDeviation="17"/>
<feColorMatrix type="matrix" values="0 0 0 0 0 0 0 0 0 0 0 0 0 0 0 0 0 0 0.1 0"/>
<feBlend mode="normal" in2="BackgroundImageFix" result="effect1_dropShadow_166_10856"/>
<feBlend mode="normal" in="SourceGraphic" in2="effect1_dropShadow_166_10856" result="shape"/>
</filter>
</defs>
</svg>
