<svg width="280" height="366" viewBox="0 0 280 366" fill="none" xmlns="http://www.w3.org/2000/svg">
<g filter="url(#filter0_d_166_10847)">
<rect x="35.5951" y="29" width="210" height="296" rx="20" transform="rotate(0.308765 35.5951 29)" fill="#F2F2F2"/>
<rect x="36.0924" y="29.5027" width="209" height="295" rx="19.5" transform="rotate(0.308765 36.0924 29.5027)" stroke="#D2D2D2"/>
</g>
<path d="M72.9555 82.5574L63.9828 80.3605L67.3803 51.5503L99.333 51.7225L99.284 60.8239L76.589 60.7016L75.1147 73.3111C75.8723 72.8724 77.0207 72.4099 78.5598 71.9234C80.099 71.4108 81.8191 71.1597 83.7202 71.1699C86.4805 71.1848 88.9261 71.6276 91.0569 72.4985C93.1876 73.3694 94.9907 74.6291 96.4663 76.2777C97.9678 77.9265 99.1028 79.9378 99.8713 82.3118C100.64 84.6858 101.016 87.3701 101 90.3649C100.986 92.8909 100.583 95.2976 99.789 97.585C98.9955 99.8464 97.7997 101.871 96.2015 103.66C94.6034 105.422 92.6038 106.804 90.2025 107.807C87.8012 108.81 84.96 109.302 81.6788 109.284C79.2309 109.271 76.8631 108.894 74.5754 108.152C72.3138 107.411 70.2753 106.319 68.4602 104.877C66.671 103.435 65.2351 101.696 64.1523 99.6586C63.0957 97.5956 62.5484 95.2489 62.5105 92.6184L73.6822 92.6786C73.8298 94.294 74.2389 95.6895 74.9097 96.865C75.6066 98.0146 76.5263 98.905 77.6688 99.5361C78.8112 100.167 80.1507 100.487 81.6871 100.495C83.1194 100.503 84.3448 100.236 85.3633 99.6948C86.3819 99.1534 87.2063 98.4026 87.8365 97.4425C88.4668 96.4563 88.9287 95.3129 89.2221 94.0124C89.5418 92.686 89.7058 91.2545 89.714 89.7181C89.7223 88.1817 89.5475 86.7875 89.1897 85.5355C88.8319 84.2836 88.2778 83.1998 87.5275 82.2843C86.7772 81.3688 85.8175 80.6605 84.6483 80.1594C83.5051 79.6584 82.1653 79.4038 80.6289 79.3955C78.5456 79.3843 76.9293 79.7011 75.78 80.346C74.6567 80.991 73.7152 81.7281 72.9555 82.5574Z" fill="#F24822"/>
<path fill-rule="evenodd" clip-rule="evenodd" d="M109.229 160.401C98.5385 160.508 96.3478 172.666 96.3478 172.666C96.3478 172.666 93.9466 160.483 83.2579 160.261C72.5689 160.039 65.94 169.377 69.505 179.264C73.0698 189.151 76.6628 191.391 82.3047 198.575C87.9464 205.76 96.1437 218.18 96.0868 221.099C96.0616 218.179 104.05 205.847 109.769 198.723C115.488 191.6 119.105 189.399 122.776 179.551C126.447 169.703 119.92 160.294 109.229 160.401Z" fill="#F24822"/>
<defs>
<filter id="filter0_d_166_10847" x="0.107422" y="0.107422" width="279.377" height="364.912" filterUnits="userSpaceOnUse" color-interpolation-filters="sRGB">
<feFlood flood-opacity="0" result="BackgroundImageFix"/>
<feColorMatrix in="SourceAlpha" type="matrix" values="0 0 0 0 0 0 0 0 0 0 0 0 0 0 0 0 0 0 127 0" result="hardAlpha"/>
<feOffset dy="5"/>
<feGaussianBlur stdDeviation="17"/>
<feColorMatrix type="matrix" values="0 0 0 0 0 0 0 0 0 0 0 0 0 0 0 0 0 0 0.1 0"/>
<feBlend mode="normal" in2="BackgroundImageFix" result="effect1_dropShadow_166_10847"/>
<feBlend mode="normal" in="SourceGraphic" in2="effect1_dropShadow_166_10847" result="shape"/>
</filter>
</defs>
</svg>
