<svg width="278" height="364" viewBox="0 0 278 364" fill="none" xmlns="http://www.w3.org/2000/svg">
<g filter="url(#filter0_d_166_10872)">
<rect x="34" y="29" width="210" height="296" rx="20" fill="#F2F2F2"/>
<rect x="34.5" y="29.5" width="209" height="295" rx="19.5" stroke="#D2D2D2"/>
</g>
<path d="M71.4922 51.3789V108.254H59.7734V51.3789H71.4922ZM105.555 51.3789L83.0156 79.4648L70.0078 93.4492L67.8984 82.3555L76.6875 70.3242L91.1797 51.3789H105.555ZM92.2344 108.254L75.4766 81.9648L84.1484 74.6992L106.102 108.254H92.2344Z" fill="black"/>
<path fill-rule="evenodd" clip-rule="evenodd" d="M109.244 200.985C119.532 201.117 125.862 193.546 122.38 185.577C118.899 177.608 115.428 175.815 109.963 170.037C104.495 164.26 96.5444 154.265 96.582 151.907C96.6222 154.265 88.999 164.26 83.5312 170.037C78.0661 175.815 74.598 177.608 71.1139 185.577C67.6324 193.546 73.9646 201.117 84.2506 200.985C91.3128 200.893 94.491 196.234 95.7874 193.32L95.7874 197.133C95.7874 197.133 93.5327 210.886 77.6205 212.392L75.0839 212.392L75.0839 214.535L118.413 214.535L118.413 212.392L115.874 212.392C99.9641 210.886 97.7067 197.133 97.7067 197.133L97.7067 193.821C99.234 196.737 102.573 200.898 109.244 200.985Z" fill="#1A1919"/>
<defs>
<filter id="filter0_d_166_10872" x="0" y="0" width="278" height="364" filterUnits="userSpaceOnUse" color-interpolation-filters="sRGB">
<feFlood flood-opacity="0" result="BackgroundImageFix"/>
<feColorMatrix in="SourceAlpha" type="matrix" values="0 0 0 0 0 0 0 0 0 0 0 0 0 0 0 0 0 0 127 0" result="hardAlpha"/>
<feOffset dy="5"/>
<feGaussianBlur stdDeviation="17"/>
<feColorMatrix type="matrix" values="0 0 0 0 0 0 0 0 0 0 0 0 0 0 0 0 0 0 0.1 0"/>
<feBlend mode="normal" in2="BackgroundImageFix" result="effect1_dropShadow_166_10872"/>
<feBlend mode="normal" in="SourceGraphic" in2="effect1_dropShadow_166_10872" result="shape"/>
</filter>
</defs>
</svg>
