<svg width="278" height="364" viewBox="0 0 278 364" fill="none" xmlns="http://www.w3.org/2000/svg">
<g filter="url(#filter0_d_166_10857)">
<rect x="34" y="29" width="210" height="296" rx="20" fill="#F2F2F2"/>
<rect x="34.5" y="29.5" width="209" height="295" rx="19.5" stroke="#D2D2D2"/>
</g>
<path d="M99.3828 92.668C99.3828 96.2357 98.5495 99.2435 96.8828 101.691C95.2161 104.113 92.9245 105.949 90.0078 107.199C87.1172 108.423 83.8359 109.035 80.1641 109.035C76.4922 109.035 73.1979 108.423 70.2812 107.199C67.3646 105.949 65.0599 104.113 63.3672 101.691C61.6745 99.2435 60.8281 96.2357 60.8281 92.668C60.8281 90.2721 61.3099 88.1107 62.2734 86.1836C63.237 84.2305 64.5781 82.5638 66.2969 81.1836C68.0417 79.7773 70.0859 78.7096 72.4297 77.9805C74.7734 77.2253 77.3255 76.8477 80.0859 76.8477C83.7839 76.8477 87.0911 77.4987 90.0078 78.8008C92.9245 80.1029 95.2161 81.9388 96.8828 84.3086C98.5495 86.6784 99.3828 89.4648 99.3828 92.668ZM88.0547 91.9258C88.0547 90.181 87.7161 88.6836 87.0391 87.4336C86.388 86.1576 85.4635 85.181 84.2656 84.5039C83.0677 83.8268 81.6745 83.4883 80.0859 83.4883C78.4974 83.4883 77.1042 83.8268 75.9062 84.5039C74.7083 85.181 73.7708 86.1576 73.0937 87.4336C72.4427 88.6836 72.1172 90.181 72.1172 91.9258C72.1172 93.6445 72.4427 95.1289 73.0937 96.3789C73.7708 97.6289 74.7083 98.5924 75.9062 99.2695C77.1302 99.9206 78.5495 100.246 80.1641 100.246C81.7786 100.246 83.1719 99.9206 84.3437 99.2695C85.5417 98.5924 86.4531 97.6289 87.0781 96.3789C87.7292 95.1289 88.0547 93.6445 88.0547 91.9258ZM98.1719 66.457C98.1719 69.3477 97.4036 71.9128 95.8672 74.1523C94.3307 76.3659 92.1953 78.0977 89.4609 79.3477C86.7526 80.5977 83.6536 81.2227 80.1641 81.2227C76.6484 81.2227 73.5234 80.5977 70.7891 79.3477C68.0547 78.0977 65.9193 76.3659 64.3828 74.1523C62.8464 71.9128 62.0781 69.3477 62.0781 66.457C62.0781 63.0195 62.8464 60.1289 64.3828 57.7852C65.9453 55.4154 68.0807 53.6185 70.7891 52.3945C73.5234 51.1706 76.6224 50.5586 80.0859 50.5586C83.6016 50.5586 86.7135 51.1706 89.4219 52.3945C92.1562 53.6185 94.2917 55.4154 95.8281 57.7852C97.3906 60.1289 98.1719 63.0195 98.1719 66.457ZM86.9219 66.9648C86.9219 65.4284 86.6484 64.1003 86.1016 62.9805C85.5547 61.8346 84.7734 60.9492 83.7578 60.3242C82.7682 59.6992 81.5443 59.3867 80.0859 59.3867C78.6797 59.3867 77.4687 59.6862 76.4531 60.2852C75.4635 60.8841 74.6953 61.7565 74.1484 62.9023C73.6276 64.0221 73.3672 65.3763 73.3672 66.9648C73.3672 68.5013 73.6276 69.8555 74.1484 71.0273C74.6953 72.1732 75.4766 73.0716 76.4922 73.7227C77.5078 74.3737 78.7318 74.6992 80.1641 74.6992C81.5964 74.6992 82.8073 74.3737 83.7969 73.7227C84.8125 73.0716 85.5807 72.1732 86.1016 71.0273C86.6484 69.8555 86.9219 68.5013 86.9219 66.9648Z" fill="black"/>
<path fill-rule="evenodd" clip-rule="evenodd" d="M109.244 200.985C119.532 201.117 125.862 193.546 122.38 185.577C118.899 177.608 115.428 175.815 109.963 170.037C104.495 164.26 96.5444 154.265 96.5819 151.907C96.6222 154.265 88.999 164.26 83.5312 170.037C78.0661 175.815 74.598 177.608 71.1139 185.577C67.6324 193.546 73.9645 201.117 84.2505 200.985C91.3128 200.893 94.4909 196.234 95.7874 193.32L95.7874 197.133C95.7874 197.133 93.5326 210.886 77.6205 212.392L75.0839 212.392L75.0839 214.535L118.413 214.535L118.413 212.392L115.874 212.392C99.9641 210.886 97.7066 197.133 97.7066 197.133L97.7066 193.821C99.234 196.737 102.573 200.898 109.244 200.985Z" fill="#1A1919"/>
<defs>
<filter id="filter0_d_166_10857" x="0" y="0" width="278" height="364" filterUnits="userSpaceOnUse" color-interpolation-filters="sRGB">
<feFlood flood-opacity="0" result="BackgroundImageFix"/>
<feColorMatrix in="SourceAlpha" type="matrix" values="0 0 0 0 0 0 0 0 0 0 0 0 0 0 0 0 0 0 127 0" result="hardAlpha"/>
<feOffset dy="5"/>
<feGaussianBlur stdDeviation="17"/>
<feColorMatrix type="matrix" values="0 0 0 0 0 0 0 0 0 0 0 0 0 0 0 0 0 0 0.1 0"/>
<feBlend mode="normal" in2="BackgroundImageFix" result="effect1_dropShadow_166_10857"/>
<feBlend mode="normal" in="SourceGraphic" in2="effect1_dropShadow_166_10857" result="shape"/>
</filter>
</defs>
</svg>
