<svg width="278" height="364" viewBox="0 0 278 364" fill="none" xmlns="http://www.w3.org/2000/svg">
<g filter="url(#filter0_d_166_10836)">
<rect x="34" y="29" width="210" height="296" rx="20" fill="#F2F2F2"/>
<rect x="34.5" y="29.5" width="209" height="295" rx="19.5" stroke="#D2D2D2"/>
</g>
<path d="M81.4531 61.1055L65.9844 108.254H53.5234L74.6562 51.3789H82.5859L81.4531 61.1055ZM94.3047 108.254L78.7969 61.1055L77.5469 51.3789H85.5547L106.805 108.254H94.3047ZM93.6016 87.082V96.2617H63.5625V87.082H93.6016Z" fill="black"/>
<path fill-rule="evenodd" clip-rule="evenodd" d="M109.243 200.985C119.532 201.117 125.862 193.546 122.38 185.577C118.899 177.608 115.428 175.815 109.963 170.037C104.495 164.26 96.5443 154.265 96.5819 151.907C96.6221 154.265 88.9989 164.26 83.5311 170.037C78.066 175.815 74.5979 177.608 71.1138 185.577C67.6323 193.546 73.9644 201.117 84.2505 200.985C91.3127 200.893 94.4908 196.234 95.7873 193.32L95.7873 197.133C95.7873 197.133 93.5326 210.886 77.6204 212.392L75.0838 212.392L75.0838 214.535L118.413 214.535L118.413 212.392L115.873 212.392C99.964 210.886 97.7065 197.133 97.7065 197.133L97.7065 193.821C99.2339 196.737 102.573 200.898 109.243 200.985Z" fill="#1A1919"/>
<defs>
<filter id="filter0_d_166_10836" x="0" y="0" width="278" height="364" filterUnits="userSpaceOnUse" color-interpolation-filters="sRGB">
<feFlood flood-opacity="0" result="BackgroundImageFix"/>
<feColorMatrix in="SourceAlpha" type="matrix" values="0 0 0 0 0 0 0 0 0 0 0 0 0 0 0 0 0 0 127 0" result="hardAlpha"/>
<feOffset dy="5"/>
<feGaussianBlur stdDeviation="17"/>
<feColorMatrix type="matrix" values="0 0 0 0 0 0 0 0 0 0 0 0 0 0 0 0 0 0 0.1 0"/>
<feBlend mode="normal" in2="BackgroundImageFix" result="effect1_dropShadow_166_10836"/>
<feBlend mode="normal" in="SourceGraphic" in2="effect1_dropShadow_166_10836" result="shape"/>
</filter>
</defs>
</svg>
