<svg width="278" height="364" viewBox="0 0 278 364" fill="none" xmlns="http://www.w3.org/2000/svg">
<g filter="url(#filter0_d_166_10866)">
<rect x="34" y="29" width="210" height="296" rx="20" fill="#F2F2F2"/>
<rect x="34.5" y="29.5" width="209" height="295" rx="19.5" stroke="#D2D2D2"/>
</g>
<path d="M85.8672 90.793V51.3789H97.5469V90.793C97.5469 94.5951 96.7135 97.8633 95.0469 100.598C93.3802 103.306 91.1016 105.389 88.2109 106.848C85.3464 108.306 82.1172 109.035 78.5234 109.035C74.7995 109.035 71.5052 108.41 68.6406 107.16C65.776 105.91 63.5234 103.996 61.8828 101.418C60.2422 98.8138 59.4219 95.5195 59.4219 91.5352H71.1797C71.1797 93.6185 71.4661 95.2721 72.0391 96.4961C72.638 97.7201 73.4844 98.5924 74.5781 99.1133C75.6719 99.6341 76.987 99.8945 78.5234 99.8945C80.0078 99.8945 81.2969 99.543 82.3906 98.8398C83.4844 98.1367 84.3307 97.1081 84.9297 95.7539C85.5547 94.3997 85.8672 92.7461 85.8672 90.793Z" fill="black"/>
<path fill-rule="evenodd" clip-rule="evenodd" d="M109.244 200.985C119.532 201.117 125.862 193.546 122.38 185.577C118.899 177.608 115.428 175.815 109.963 170.037C104.495 164.26 96.5444 154.265 96.582 151.907C96.6222 154.265 88.999 164.26 83.5312 170.037C78.0661 175.815 74.598 177.608 71.1139 185.577C67.6324 193.546 73.9646 201.117 84.2506 200.985C91.3128 200.893 94.491 196.234 95.7874 193.32L95.7874 197.133C95.7874 197.133 93.5327 210.886 77.6205 212.392L75.0839 212.392L75.0839 214.535L118.413 214.535L118.413 212.392L115.874 212.392C99.9641 210.886 97.7067 197.133 97.7067 197.133L97.7067 193.821C99.234 196.737 102.573 200.898 109.244 200.985Z" fill="#1A1919"/>
<defs>
<filter id="filter0_d_166_10866" x="0" y="0" width="278" height="364" filterUnits="userSpaceOnUse" color-interpolation-filters="sRGB">
<feFlood flood-opacity="0" result="BackgroundImageFix"/>
<feColorMatrix in="SourceAlpha" type="matrix" values="0 0 0 0 0 0 0 0 0 0 0 0 0 0 0 0 0 0 127 0" result="hardAlpha"/>
<feOffset dy="5"/>
<feGaussianBlur stdDeviation="17"/>
<feColorMatrix type="matrix" values="0 0 0 0 0 0 0 0 0 0 0 0 0 0 0 0 0 0 0.1 0"/>
<feBlend mode="normal" in2="BackgroundImageFix" result="effect1_dropShadow_166_10866"/>
<feBlend mode="normal" in="SourceGraphic" in2="effect1_dropShadow_166_10866" result="shape"/>
</filter>
</defs>
</svg>
